<?xml version="1.0" encoding="UTF-8" standalone="no"?>
<!DOCTYPE svg  PUBLIC '-//W3C//DTD SVG 1.1//EN'  'http://www.w3.org/Graphics/SVG/1.1/DTD/svg11.dtd'>
<svg xmlns="http://www.w3.org/2000/svg">
<defs>
<font id="ProximaNova-SemiboldIt" horiz-adv-x="573">
<font-face underline-position="-113" font-weight="600" descent="-200" panose-1="2 0 5 6 3 0 0 2 0 4" units-per-em="1000" unicode-range="U+0020-2666" bbox="-226 -199 1138 894" x-height="483" underline-thickness="20" font-family="ProximaNova" ascent="800" font-style="italic" cap-height="667"/>
<missing-glyph horiz-adv-x="1000"/>
<glyph glyph-name=".notdef" horiz-adv-x="1000"/>
<glyph glyph-name=".null" horiz-adv-x="0"/>
<glyph glyph-name=".null" horiz-adv-x="0"/>
<glyph glyph-name="nonmarkingreturn" horiz-adv-x="333"/>
<glyph glyph-name="space" horiz-adv-x="257" unicode=" "/>
<glyph glyph-name="exclam" horiz-adv-x="245" unicode="!" d="M75 -11q-27 0 -45.5 19t-18.5 45q0 31 22.5 53.5t54.5 22.5q26 0 44.5 -19t18.5 -46q0 -31 -22.5 -53t-53.5 -22zM158 204h-91l84 463h128z"/>
<glyph glyph-name="quotedbl" horiz-adv-x="379" unicode='&quot;' d="M329 391h-48q13 198 14 216q1 30 20.5 50t47.5 20q21 0 36.5 -15.5t15.5 -38.5q0 -12 -6 -27zM162 391h-48q13 198 14 216q1 30 20.5 50t47.5 20q21 0 36.5 -15.5t15.5 -38.5q0 -12 -6 -27z"/>
<glyph glyph-name="numbersign" horiz-adv-x="606" unicode="#" d="M322 243l101 180h-101l-100 -180h100zM268 0h-80l97 174h-102l-96 -174h-80l97 174h-101l37 69h102l100 180h-102l36 68h104l97 176h80l-97 -176h101l97 176h80l-98 -176h102l-35 -68h-104l-101 -180h106l-37 -69h-107z"/>
<glyph glyph-name="dollar" horiz-adv-x="605" unicode="$" d="M228 489q0 -39 78 -72l35 157h-3q-46 0 -78 -25.5t-32 -59.5zM431 188q0 24 -20 41.5t-59 34.5l-39 -172q58 1 88 30t30 66zM191 -100l21 97q-137 27 -199 113l75 86q50 -70 148 -95l42 192q-38 15 -64 28t-54 34t-42 50t-14 65q0 84 69.5 145.5t180.5 61.5h10l20 91h80 l-23 -101q108 -23 168 -97l-75 -83q-42 51 -116 75l-39 -174q39 -15 65 -28.5t54.5 -35t43 -50.5t14.5 -65q0 -91 -69 -156t-186 -65h-11l-19 -88h-80z"/>
<glyph glyph-name="percent" horiz-adv-x="746" unicode="%" d="M242 412q42 0 72 34.5t30 86.5q0 33 -23 55t-58 22q-42 0 -72 -34t-30 -86q0 -34 23 -56t58 -22zM239 346q-65 0 -110 38t-45 99q0 85 53.5 139.5t128.5 54.5q65 0 110 -38t45 -99q0 -85 -53.5 -139.5t-128.5 -54.5zM521 54q42 0 72 34.5t30 86.5q0 33 -22.5 55t-57.5 22 q-42 0 -72 -34t-30 -86q0 -34 22.5 -56t57.5 -22zM519 -12q-65 0 -110.5 38t-45.5 99q0 85 54 139.5t128 54.5q65 0 110.5 -38t45.5 -99q0 -85 -54 -139.5t-128 -54.5zM141 0h-66l573 667h67z"/>
<glyph glyph-name="ampersand" horiz-adv-x="644" unicode="&amp;" d="M290 493q0 -33 13 -75q71 25 106.5 51t35.5 69q0 30 -17.5 45.5t-45.5 15.5q-36 0 -64 -28.5t-28 -77.5zM235 72q51 0 111 40q-45 66 -63 99q-30 52 -52 101q-106 -50 -106 -139q0 -49 31.5 -75t78.5 -26zM554 0h-127q-15 18 -34 45q-89 -57 -174 -57q-93 0 -151 43.5 t-58 128.5q0 88 51 138t141 85q-19 59 -19 109q0 78 57 131.5t138 53.5q70 0 116.5 -34t46.5 -95q0 -34 -13 -62t-30 -46t-49.5 -36t-54.5 -27t-63 -24q16 -33 43 -80q18 -33 52 -91q62 66 98 133l77 -47q-62 -93 -128 -157q31 -46 81 -111z"/>
<glyph glyph-name="quotesingle" horiz-adv-x="214" unicode="&apos;" d="M162 391h-48q13 198 14 216q1 30 20.5 50t47.5 20q21 0 36.5 -15.5t15.5 -38.5q0 -12 -6 -27z"/>
<glyph glyph-name="parenleft" horiz-adv-x="276" unicode="(" d="M172 -156l-76 -43q-72 121 -72 299q0 156 70 309.5t196 275.5l55 -55q-211 -264 -211 -562q0 -103 38 -224z"/>
<glyph glyph-name="parenright" horiz-adv-x="276" unicode=")" d="M103 642l75 43q73 -123 73 -299q0 -156 -70.5 -309.5t-196.5 -275.5l-54 55q211 263 211 561q0 104 -38 225z"/>
<glyph glyph-name="asterisk" horiz-adv-x="346" unicode="*" d="M230 376h-57l31 115l-108 -49l-16 50l110 39l-87 61l38 44l80 -69l19 110h57l-32 -115l108 49l16 -50l-109 -40l87 -60l-39 -44l-80 69z"/>
<glyph glyph-name="plus" horiz-adv-x="502" unicode="+" d="M486 303h-185l-46 -207h-74l46 207h-185l15 68h185l44 200h74l-44 -200h185z"/>
<glyph glyph-name="comma" horiz-adv-x="245" unicode="," d="M154 57q0 -52 -38.5 -104t-94.5 -80l-39 41q71 34 92 84h-10q-22 0 -37.5 15t-15.5 41q0 30 23 52.5t53 22.5q28 0 47.5 -19t19.5 -53z"/>
<glyph glyph-name="hyphen" horiz-adv-x="300" unicode="-" d="M259 197h-240l20 90h240z"/>
<glyph glyph-name="period" horiz-adv-x="245" unicode="." d="M75 -11q-27 0 -45.5 19t-18.5 45q0 31 22.5 53.5t54.5 22.5q26 0 44.5 -19t18.5 -46q0 -31 -22.5 -53t-53.5 -22z"/>
<glyph glyph-name="slash" horiz-adv-x="315" unicode="/" d="M21 -20h-81l393 707h82z"/>
<glyph glyph-name="zero" horiz-adv-x="616" unicode="0" d="M292 92q58 0 104 53t68 126.5t22 147.5q0 71 -30 112.5t-93 41.5q-58 0 -104 -53t-68.5 -126.5t-22.5 -146.5q0 -71 30.5 -113t93.5 -42zM281 -12q-108 0 -169.5 70t-61.5 195q0 106 39 202t115 159t170 63q108 0 169 -70t61 -194q0 -106 -39 -202.5t-114.5 -159.5 t-169.5 -63z"/>
<glyph glyph-name="one" horiz-adv-x="380" unicode="1" d="M255 0h-117l113 515l-133 -113l-53 71l235 194h102z"/>
<glyph glyph-name="two" horiz-adv-x="595" unicode="2" d="M479 0h-483l24 110q96 56 153.5 91.5t119.5 78.5t94.5 74t53.5 65t21 65q0 41 -36 65.5t-94 24.5q-97 0 -168 -62l-51 83q42 38 102.5 60t124.5 22q103 0 174 -49t71 -137q0 -98 -99 -191.5t-280 -196.5h295z"/>
<glyph glyph-name="three" horiz-adv-x="574" unicode="3" d="M267 -12q-90 0 -167 37.5t-109 101.5l80 69q28 -49 82.5 -76.5t112.5 -27.5q64 0 100 31t36 81q0 38 -33 61t-100 23q-63 0 -74 -1l24 105q11 -1 92 -1q63 0 103 23.5t40 71.5q0 39 -38 63t-102 24q-94 0 -165 -59l-44 80q41 38 98.5 60.5t120.5 22.5q113 0 181.5 -45.5 t68.5 -126.5q0 -67 -55 -113.5t-125 -53.5q54 -13 88.5 -49.5t34.5 -95.5q0 -87 -72 -146t-178 -59z"/>
<glyph glyph-name="four" horiz-adv-x="580" unicode="4" d="M347 254l69 308l-272 -308h203zM409 0h-117l33 151h-318l23 103l358 413h168l-92 -413h89l-22 -103h-89z"/>
<glyph glyph-name="five" horiz-adv-x="600" unicode="5" d="M288 -12q-184 0 -263 130l85 73q53 -99 181 -99q63 0 103.5 37.5t40.5 92.5q0 50 -38 78t-99 28q-70 0 -129 -44l-76 33l77 350h437l-23 -103h-320l-40 -184q56 44 136 44q84 0 140.5 -50.5t56.5 -138.5q0 -103 -75.5 -175t-193.5 -72z"/>
<glyph glyph-name="six" horiz-adv-x="601" unicode="6" d="M294 92q62 0 103.5 40.5t41.5 97.5q0 46 -38.5 73t-98.5 27q-79 0 -141 -64q-2 -16 -2 -40q0 -61 37 -97.5t98 -36.5zM293 -12q-117 0 -182 66.5t-65 186.5q0 78 22.5 154t64 139.5t109 103t149.5 39.5q140 0 214 -95l-74 -81q-47 72 -147 72q-77 0 -129 -59t-75 -142 q-5 -11 -7 -24q29 31 78.5 54t102.5 23q90 0 148.5 -49t58.5 -131q0 -105 -78.5 -181t-189.5 -76z"/>
<glyph glyph-name="seven" horiz-adv-x="532" unicode="7" d="M197 0h-134l374 564h-340l23 103h481l-18 -81z"/>
<glyph glyph-name="eight" horiz-adv-x="595" unicode="8" d="M284 92q55 0 97 27.5t42 71.5q0 36 -35 63t-80 38q-70 -4 -116.5 -33.5t-46.5 -74.5q0 -44 38.5 -68t100.5 -24zM330 390q67 5 107.5 30.5t40.5 67.5q0 36 -37 60t-91 24q-53 0 -90 -25t-37 -67q0 -31 33.5 -56t73.5 -34zM279 -12q-110 0 -184 45t-74 130 q0 69 51.5 120.5t140.5 72.5q-45 19 -76 55t-31 82q0 89 76 136.5t175 47.5q100 0 173.5 -44.5t73.5 -123.5q0 -68 -49.5 -114.5t-130.5 -61.5q117 -59 117 -154q0 -86 -77 -138.5t-185 -52.5z"/>
<glyph glyph-name="nine" horiz-adv-x="601" unicode="9" d="M345 574q-62 0 -104 -41t-42 -97q0 -46 38.5 -73.5t98.5 -27.5q78 0 142 64q1 8 1 40q0 61 -36.5 98t-97.5 37zM346 678q117 0 182 -66.5t65 -186.5q0 -62 -13.5 -123.5t-42.5 -118t-69 -100t-97.5 -69t-123.5 -25.5q-140 0 -213 94l74 82q44 -72 147 -72q77 0 128.5 58 t75.5 142q6 18 7 24q-30 -31 -79.5 -54t-101.5 -23q-90 0 -149 49.5t-59 131.5q0 105 79 181t190 76z"/>
<glyph glyph-name="colon" horiz-adv-x="245" unicode=":" d="M154 350q-26 0 -44.5 19t-18.5 46q0 31 22.5 53t53.5 22q27 0 45.5 -19t18.5 -45q0 -31 -22.5 -53.5t-54.5 -22.5zM75 -11q-27 0 -45.5 19t-18.5 45q0 31 22.5 53.5t54.5 22.5q26 0 44.5 -19t18.5 -46q0 -31 -22.5 -53t-53.5 -22z"/>
<glyph glyph-name="semicolon" horiz-adv-x="245" unicode=";" d="M154 350q-26 0 -44.5 19t-18.5 46q0 31 22.5 53t53.5 22q27 0 45.5 -19t18.5 -45q0 -31 -22.5 -53.5t-54.5 -22.5zM154 57q0 -52 -38.5 -104t-94.5 -80l-39 41q71 34 92 84h-10q-22 0 -37.5 15t-15.5 41q0 30 23 52.5t53 22.5q28 0 47.5 -19t19.5 -53z"/>
<glyph glyph-name="less" horiz-adv-x="502" unicode="&lt;" d="M438 90l-398 207l17 75l490 208l-19 -84l-401 -166l328 -163z"/>
<glyph glyph-name="equal" horiz-adv-x="502" unicode="=" d="M464 205h-444l15 67h444zM506 395h-444l15 68h444z"/>
<glyph glyph-name="greater" horiz-adv-x="502" unicode="&gt;" d="M484 297l-490 -207l19 84l401 163l-328 166l17 77l398 -208z"/>
<glyph glyph-name="question" horiz-adv-x="458" unicode="?" d="M177 -11q-26 0 -44.5 19t-18.5 45q0 31 22.5 53.5t53.5 22.5q27 0 45.5 -19t18.5 -46q0 -31 -22.5 -53t-54.5 -22zM273 225l-95 -29q-20 31 -20 70q0 40 22 70.5t53 49t62.5 34.5t53.5 37.5t22 48.5q0 31 -26 49.5t-73 18.5q-77 0 -135 -55l-51 80q88 78 202 78 q89 0 148 -40t59 -107q0 -49 -24.5 -85.5t-59 -57.5t-69 -38t-59 -39.5t-24.5 -51.5q0 -19 14 -33z"/>
<glyph glyph-name="at" horiz-adv-x="783" unicode="@" d="M368 160q73 0 127 76l27 126q-10 24 -33 42.5t-58 18.5q-64 0 -109 -50.5t-45 -114.5q0 -44 24.5 -71t66.5 -27zM372 -70q-136 0 -226.5 90.5t-90.5 223.5q0 159 120 276.5t277 117.5q139 0 227 -90t88 -221q0 -114 -58 -178t-129 -64q-42 0 -66.5 22t-28.5 55l-1 6 q-27 -37 -67 -60t-83 -23q-70 0 -112 46t-42 120q0 100 70.5 173.5t159.5 73.5q90 0 126 -71l12 56h94l-54 -255q-2 -12 -2 -23q0 -23 11.5 -35.5t29.5 -12.5q36 0 68 43t32 127q0 122 -76.5 198t-202.5 76q-143 0 -249.5 -107t-106.5 -248q0 -120 80.5 -200t203.5 -80 q97 0 184 55l20 -28q-98 -63 -208 -63z"/>
<glyph glyph-name="A" horiz-adv-x="673" unicode="A" d="M459 231l-50 318l-190 -318h240zM617 0h-127l-21 128h-306l-77 -128h-139l409 667h146z"/>
<glyph glyph-name="B" horiz-adv-x="648" unicode="B" d="M351 103q55 0 87 30.5t32 74.5q0 36 -23.5 58t-64.5 22h-185l-41 -185h195zM411 391q56 0 82 29t26 70q0 31 -24 52.5t-58 21.5h-179l-38 -173h191zM357 0h-340l147 667h304q79 0 127.5 -45t48.5 -112q0 -68 -45.5 -119t-107.5 -57q44 -12 70.5 -51t26.5 -85 q0 -80 -58.5 -139t-172.5 -59z"/>
<glyph glyph-name="C" horiz-adv-x="682" unicode="C" d="M370 -12q-138 0 -228.5 81.5t-90.5 214.5q0 173 113 283.5t269 110.5q107 0 179.5 -48t106.5 -127l-112 -40q-23 54 -71 82.5t-109 28.5q-103 0 -178.5 -81t-75.5 -202q0 -88 55.5 -143.5t148.5 -55.5q96 0 166 76l89 -62q-52 -62 -121.5 -90t-140.5 -28z"/>
<glyph glyph-name="D" horiz-adv-x="710" unicode="D" d="M281 103h4q128 0 206 79t78 192q0 81 -52 135.5t-132 54.5h-127l-102 -461h125zM264 0h-247l147 667h243q115 0 199.5 -81t84.5 -205q0 -55 -15 -108t-48.5 -103t-82 -87.5t-121 -60t-160.5 -22.5z"/>
<glyph glyph-name="E" horiz-adv-x="577" unicode="E" d="M474 0h-457l147 667h457l-23 -103h-340l-38 -173h333l-23 -103h-333l-41 -185h340z"/>
<glyph glyph-name="F" horiz-adv-x="562" unicode="F" d="M134 0h-117l147 667h457l-23 -103h-340l-38 -173h333l-23 -103h-333z"/>
<glyph glyph-name="G" horiz-adv-x="717" unicode="G" d="M370 -12q-138 0 -228.5 82t-90.5 214q0 170 112.5 282t279.5 112q96 0 165.5 -44t104.5 -113l-107 -47q-21 46 -70 73t-109 27q-103 0 -178.5 -81.5t-75.5 -201.5q0 -88 55.5 -143.5t148.5 -55.5q83 0 151 59l23 104h-199l23 103h316l-56 -253q-106 -117 -265 -117z"/>
<glyph glyph-name="H" horiz-adv-x="723" unicode="H" d="M598 0h-117l64 291h-347l-64 -291h-117l147 667h117l-60 -273h347l60 273h117z"/>
<glyph glyph-name="I" horiz-adv-x="259" unicode="I" d="M134 0h-117l147 667h117z"/>
<glyph glyph-name="J" horiz-adv-x="481" unicode="J" d="M162 -12q-128 0 -188 79l65 86q38 -61 115 -61q105 0 132 121l100 454h117l-100 -456q-25 -114 -84.5 -168.5t-156.5 -54.5z"/>
<glyph glyph-name="K" horiz-adv-x="621" unicode="K" d="M560 0h-137l-165 286l-77 -73l-47 -213h-117l147 667h117l-68 -308l322 308h152l-340 -315z"/>
<glyph glyph-name="L" horiz-adv-x="517" unicode="L" d="M428 0h-411l147 667h117l-125 -564h294z"/>
<glyph glyph-name="M" horiz-adv-x="835" unicode="M" d="M710 0h-117l113 515l-318 -515h-50l-91 515l-113 -515h-117l147 667h160l80 -459l283 459h170z"/>
<glyph glyph-name="N" horiz-adv-x="720" unicode="N" d="M595 0h-113l-239 494l-109 -494h-117l147 667h120l234 -481l107 481h117z"/>
<glyph glyph-name="O" horiz-adv-x="765" unicode="O" d="M377 92q105 0 179 81.5t74 201.5q0 91 -58 145t-146 54q-105 0 -179 -81.5t-74 -201.5q0 -92 57.5 -145.5t146.5 -53.5zM370 -12q-138 0 -228.5 80.5t-90.5 215.5q0 165 110.5 279.5t271.5 114.5q138 0 228.5 -80.5t90.5 -214.5q0 -166 -110.5 -280.5t-271.5 -114.5z"/>
<glyph glyph-name="P" horiz-adv-x="608" unicode="P" d="M211 352h160q63 0 100 35.5t37 88.5q0 37 -27 62.5t-68 25.5h-155zM134 0h-117l147 667h268q93 0 145.5 -51.5t52.5 -128.5q0 -32 -8.5 -63.5t-28.5 -63.5t-49.5 -56t-76 -39.5t-104.5 -15.5h-174z"/>
<glyph glyph-name="Q" horiz-adv-x="765" unicode="Q" d="M377 92q39 0 75 12l-67 102l93 47l63 -95q89 84 89 217q0 91 -58 145t-146 54q-105 0 -179 -81.5t-74 -201.5q0 -92 57.5 -145.5t146.5 -53.5zM370 -12q-138 0 -228.5 80.5t-90.5 215.5q0 165 110.5 279.5t271.5 114.5q138 0 228.5 -80.5t90.5 -214.5q0 -96 -40.5 -179 t-110.5 -138l38 -56l-94 -47l-34 52q-70 -27 -141 -27z"/>
<glyph glyph-name="R" horiz-adv-x="628" unicode="R" d="M370 352h2q63 0 99.5 34.5t36.5 87.5q0 39 -29 64.5t-68 25.5h-153l-47 -212h159zM533 0h-129l-93 249h-123l-54 -249h-117l147 667h268q81 0 140 -50t59 -132q0 -91 -56.5 -154t-145.5 -75z"/>
<glyph glyph-name="S" horiz-adv-x="594" unicode="S" d="M294 -12q-93 0 -170.5 34t-117.5 88l75 86q35 -48 94.5 -76t128.5 -28q59 0 89.5 29t30.5 67q0 30 -33.5 52t-82 39.5t-96.5 38.5t-81.5 60t-33.5 92q0 84 69.5 145.5t180.5 61.5q79 0 147 -28.5t108 -78.5l-75 -83q-34 42 -87 64.5t-109 22.5q-46 0 -78 -25.5t-32 -59.5 q0 -27 34 -48.5t82 -39t96 -39t82 -60.5t34 -93q0 -91 -69 -156t-186 -65z"/>
<glyph glyph-name="T" horiz-adv-x="577" unicode="T" d="M293 0h-117l124 564h-202l23 103h521l-23 -103h-202z"/>
<glyph glyph-name="U" horiz-adv-x="719" unicode="U" d="M347 -12q-133 0 -205 61.5t-72 166.5q0 22 5 47l89 404h118l-88 -401q-4 -14 -4 -37q0 -60 41.5 -99t115.5 -39q149 0 187 175l89 401h118l-89 -403q-29 -133 -100 -204.5t-205 -71.5z"/>
<glyph glyph-name="V" horiz-adv-x="673" unicode="V" d="M355 0h-146l-115 667h127l83 -540l321 540h139z"/>
<glyph glyph-name="W" horiz-adv-x="903" unicode="W" d="M652 0h-125l-21 492l-238 -492h-125l-44 667h128l16 -514l252 514h93l24 -514l243 514h134z"/>
<glyph glyph-name="X" horiz-adv-x="661" unicode="X" d="M603 0h-132l-135 256l-239 -256h-148l328 349l-166 318h133l123 -240l220 240h148l-309 -332z"/>
<glyph glyph-name="Y" horiz-adv-x="637" unicode="Y" d="M323 0h-117l61 277l-173 390h127l121 -286l245 286h141l-344 -390z"/>
<glyph glyph-name="Z" horiz-adv-x="589" unicode="Z" d="M490 0h-500l21 95l437 469h-333l22 103h493l-20 -95l-439 -469h342z"/>
<glyph glyph-name="bracketleft" horiz-adv-x="264" unicode="[" d="M150 -190h-203l193 868h203l-16 -72h-126l-160 -724h125z"/>
<glyph glyph-name="backslash" horiz-adv-x="315" unicode="\" d="M178 -20l-80 707h78l80 -707h-78z"/>
<glyph glyph-name="bracketright" horiz-adv-x="264" unicode="]" d="M123 -190h-202l16 72h125l161 724h-126l16 72h203z"/>
<glyph glyph-name="asciicircum" horiz-adv-x="437" unicode="^" d="M437 333h-76l-62 261l-177 -261h-84l235 334h78z"/>
<glyph glyph-name="underscore" horiz-adv-x="564" unicode="_" d="M487 -112h-569l17 72h569z"/>
<glyph glyph-name="grave" horiz-adv-x="240" unicode="`" d="M309 556h-75l-133 144h100z"/>
<glyph glyph-name="a" horiz-adv-x="581" unicode="a" d="M302 402q-69 0 -114.5 -58t-45.5 -136q0 -58 33 -92.5t86 -34.5q37 0 70.5 19t55.5 49l42 187q-17 29 -50.5 47.5t-76.5 18.5zM286 495q51 0 93.5 -21.5t66.5 -59.5l15 69h105l-107 -483h-105l14 64q-62 -76 -151 -76q-84 0 -134.5 52.5t-50.5 146.5q0 77 29 146.5 t88.5 115.5t136.5 46z"/>
<glyph glyph-name="b" horiz-adv-x="581" unicode="b" d="M278 81q69 0 114.5 57.5t45.5 135.5q0 58 -33.5 93t-85.5 35q-74 0 -127 -69l-41 -187q17 -29 50.5 -47t76.5 -18zM294 -12q-108 0 -160 81l-15 -69h-105l147 667h105l-55 -248q64 76 152 76q83 0 134 -53t51 -147q0 -120 -70 -213.5t-184 -93.5z"/>
<glyph glyph-name="c" horiz-adv-x="497" unicode="c" d="M264 -12q-104 0 -167.5 59.5t-63.5 158.5q0 120 80.5 204.5t196.5 84.5q134 0 190 -93l-79 -60q-35 60 -110 60q-76 0 -123.5 -56.5t-47.5 -135.5q0 -61 37.5 -95t96.5 -34q65 0 110 52l58 -70q-71 -75 -178 -75z"/>
<glyph glyph-name="d" horiz-adv-x="581" unicode="d" d="M302 402q-69 0 -114.5 -58t-45.5 -136q0 -58 33 -92.5t86 -34.5q37 0 70.5 19t55.5 49l42 187q-17 29 -50.5 47.5t-76.5 18.5zM286 495q51 0 93.5 -21.5t66.5 -59.5l56 253h105l-148 -667h-105l14 64q-62 -76 -151 -76q-84 0 -134.5 52.5t-50.5 146.5q0 77 29 146.5 t88.5 115.5t136.5 46z"/>
<glyph glyph-name="e" horiz-adv-x="557" unicode="e" d="M150 281h277q1 3 1 14q0 49 -33 81.5t-94 32.5q-56 0 -98.5 -38t-52.5 -90zM277 -12q-113 0 -178.5 58t-65.5 158q0 120 79.5 205.5t196.5 85.5q95 0 154 -58.5t59 -155.5q0 -40 -9 -74h-374q0 -1 -0.5 -7.5t-0.5 -9.5q0 -45 39 -80.5t108 -35.5q77 0 129 40l33 -73 q-72 -53 -170 -53z"/>
<glyph glyph-name="f" horiz-adv-x="308" unicode="f" d="M145 0h-105l86 392h-80l21 91h79l6 27q17 76 60 121.5t116 45.5t118 -45l-54 -63q-22 22 -57 22q-32 0 -50.5 -19.5t-27.5 -61.5l-6 -27h99l-21 -91h-98z"/>
<glyph glyph-name="g" horiz-adv-x="580" unicode="g" d="M262 93q35 0 68.5 18.5t57.5 46.5l39 175q-19 32 -54 50.5t-78 18.5q-67 0 -110.5 -55t-43.5 -130q0 -57 33 -90.5t88 -33.5zM212 -196q-152 0 -226 83l63 70q48 -67 161 -67q118 0 148 135l12 52q-62 -77 -155 -77q-80 0 -131.5 49.5t-51.5 148.5q0 118 69 207.5 t182 89.5q46 0 90.5 -22.5t70.5 -58.5l16 69h105l-102 -458q-26 -120 -94 -170.5t-157 -50.5z"/>
<glyph glyph-name="h" horiz-adv-x="568" unicode="h" d="M446 0h-105l66 303q5 20 5 30q0 35 -24.5 52t-65.5 17q-65 0 -129 -66l-74 -336h-105l147 667h105l-55 -250q82 78 165 78q68 0 108 -32.5t40 -89.5q0 -15 -5 -40z"/>
<glyph glyph-name="i" horiz-adv-x="241" unicode="i" d="M119 0h-105l107 483h105zM193 542q-25 0 -42 16.5t-17 39.5q0 33 23 53.5t50 20.5q25 0 42 -16.5t17 -39.5q0 -33 -23 -53.5t-50 -20.5z"/>
<glyph glyph-name="j" horiz-adv-x="241" unicode="j" d="M193 542q-25 0 -42 16.5t-17 39.5q0 33 23 53.5t50 20.5q25 0 42 -16.5t17 -39.5q0 -33 -23 -53.5t-50 -20.5zM-60 -196q-85 0 -126 41l46 75q24 -30 65 -30q63 0 82 82l114 511h105l-114 -511q-18 -82 -59 -125t-113 -43z"/>
<glyph glyph-name="k" horiz-adv-x="526" unicode="k" d="M466 0h-127l-106 202l-86 -72l-28 -130h-105l147 667h105l-91 -411l259 227h135l-250 -219z"/>
<glyph glyph-name="l" horiz-adv-x="241" unicode="l" d="M119 0h-105l147 667h105z"/>
<glyph glyph-name="m" horiz-adv-x="833" unicode="m" d="M711 0h-105l68 308q4 20 4 30q0 29 -22 46.5t-53 17.5q-57 0 -114 -65l-74 -337h-105l68 308q4 22 4 35q-1 25 -21 42t-55 17q-54 0 -113 -65l-74 -337h-105l107 483h105l-15 -66q70 78 149 78q60 0 94 -31t34 -54v-2q70 87 169 87q55 0 94 -32.5t39 -89.5q0 -15 -5 -40z "/>
<glyph glyph-name="n" horiz-adv-x="567" unicode="n" d="M445 0h-105l67 303q5 23 5 30q0 35 -23 52t-58 17q-73 0 -138 -65l-74 -337h-105l107 483h105l-15 -66q82 78 165 78q68 0 108 -32.5t40 -89.5q0 -15 -5 -40z"/>
<glyph glyph-name="o" d="M267 81q70 0 116.5 57.5t46.5 134.5q0 60 -33.5 94.5t-92.5 34.5q-70 0 -116.5 -58t-46.5 -134q0 -60 33.5 -94.5t92.5 -34.5zM264 -12q-108 0 -170 60t-62 157q0 116 79 203t196 87q108 0 170 -60.5t62 -157.5q0 -116 -79 -202.5t-196 -86.5z" unicode="o"/>
<glyph glyph-name="p" horiz-adv-x="578" unicode="p" d="M278 81q69 0 114.5 57.5t45.5 135.5q0 58 -33.5 93t-85.5 35q-74 0 -127 -69l-41 -187q17 -29 50.5 -47t76.5 -18zM294 -12q-108 0 -160 81l-56 -253h-105l148 667h105l-15 -64q64 76 152 76q83 0 134 -53t51 -147q0 -120 -70 -213.5t-184 -93.5z"/>
<glyph glyph-name="q" horiz-adv-x="578" unicode="q" d="M302 402q-69 0 -114.5 -58t-45.5 -136q0 -58 33 -92.5t86 -34.5q37 0 70.5 19t55.5 49l42 187q-17 29 -50.5 47.5t-76.5 18.5zM286 495q51 0 93.5 -21.5t66.5 -59.5l15 69h105l-148 -667h-105l55 248q-62 -76 -151 -76q-84 0 -134.5 52.5t-50.5 146.5q0 77 29 146.5 t88.5 115.5t136.5 46z"/>
<glyph glyph-name="r" horiz-adv-x="347" unicode="r" d="M119 0h-105l107 483h105l-16 -68q71 79 175 79l-23 -105q-17 5 -43 5q-36 0 -70.5 -19t-57.5 -48z"/>
<glyph glyph-name="s" horiz-adv-x="472" unicode="s" d="M214 -12q-141 0 -218 86l62 73q22 -30 68.5 -53t96.5 -23q39 0 63 19t24 46q0 25 -39 44.5t-85.5 32.5t-85.5 45t-39 80q0 65 51.5 111t140.5 46q60 0 112.5 -22t83.5 -57l-56 -69q-18 25 -59 44.5t-84 19.5q-39 0 -62 -16t-23 -41q0 -19 25.5 -33.5t62.5 -27t74 -27.5 t62.5 -44t25.5 -69q0 -70 -54.5 -117.5t-146.5 -47.5z"/>
<glyph glyph-name="t" horiz-adv-x="319" unicode="t" d="M187 -12q-60 0 -94.5 24.5t-34.5 73.5q0 14 3 31l61 275h-80l21 91h80l29 132h105l-29 -132h98l-21 -91h-98l-55 -249q-2 -10 -2 -19q0 -43 48 -43q25 0 40 13l6 -84q-28 -22 -77 -22z"/>
<glyph glyph-name="u" horiz-adv-x="567" unicode="u" d="M121 483h105l-67 -302q-5 -23 -5 -31q0 -35 24.5 -52t65.5 -17q63 0 129 66l74 336h105l-107 -483h-105l15 66q-82 -78 -165 -78q-68 0 -108 32.5t-40 89.5q0 15 5 40z"/>
<glyph glyph-name="v" horiz-adv-x="503" unicode="v" d="M254 0h-113l-90 483h109l60 -362l222 362h116z"/>
<glyph glyph-name="w" horiz-adv-x="754" unicode="w" d="M545 0h-110l-34 354l-190 -354h-110l-43 483h105l24 -351l193 351h93l36 -351l180 351h113z"/>
<glyph glyph-name="x" horiz-adv-x="496" unicode="x" d="M437 0h-114l-86 178l-165 -178h-121l231 248l-114 235h114l78 -164l151 164h122l-220 -235z"/>
<glyph glyph-name="y" horiz-adv-x="503" unicode="y" d="M-47 -185l35 92q18 -8 48 -8q38 0 65 40l38 58l-88 486h109l60 -362l222 362h116l-360 -570q-37 -58 -77 -83.5t-95 -25.5q-42 0 -73 11z"/>
<glyph glyph-name="z" horiz-adv-x="476" unicode="z" d="M375 0h-383l17 79l304 312h-234l20 92h379l-17 -77l-307 -315h241z"/>
<glyph glyph-name="braceleft" horiz-adv-x="276" unicode="{" d="M162 -190h-46q-52 0 -89.5 33.5t-37.5 85.5q0 15 3 29l42 187q2 12 2 17q0 22 -10.5 36.5t-28.5 14.5l14 62q52 0 67 68l41 186q17 74 62.5 111.5t112.5 37.5h61l-16 -72h-61q-64 0 -81 -77l-46 -204q-16 -73 -65 -89q29 -15 29 -55q0 -18 -4 -34l-41 -188q-2 -12 -2 -20 q0 -25 16 -41t40 -16h55z"/>
<glyph glyph-name="bar" horiz-adv-x="214" unicode="|" d="M163 -20h-72v707h72v-707z"/>
<glyph glyph-name="braceright" horiz-adv-x="276" unicode="}" d="M113 678h46q52 0 89.5 -33.5t37.5 -85.5q0 -17 -3 -30l-42 -186q-2 -12 -2 -18q0 -22 10.5 -36t28.5 -14l-14 -62q-52 0 -67 -68l-41 -186q-34 -149 -175 -149h-61l16 72h61q64 0 81 76l46 205q16 73 65 89q-29 15 -29 55q0 18 4 34l41 188q2 12 2 19q0 25 -16 41.5 t-40 16.5h-55z"/>
<glyph glyph-name="asciitilde" horiz-adv-x="507" unicode="~" d="M500 667l72 -9q-54 -241 -185 -241q-39 0 -61.5 18.5t-29 45.5t-10 54t-12.5 45.5t-28 18.5q-32 0 -61.5 -52.5t-46.5 -130.5l-72 9q51 241 184 241q39 0 61.5 -19t29 -46t10 -53.5t12.5 -45.5t29 -19q32 0 62 53t46 131z"/>
<glyph glyph-name="nbspace" horiz-adv-x="257" unicode=" "/>
<glyph glyph-name="exclamdown" horiz-adv-x="245" unicode="¡" d="M167 494q27 0 45.5 -19t18.5 -46q0 -31 -22.5 -53t-54.5 -22q-26 0 -44.5 19t-18.5 45q0 31 22.5 53.5t53.5 22.5zM84 278h91l-84 -462h-128z"/>
<glyph glyph-name="cent" horiz-adv-x="497" unicode="¢" d="M140 210q0 -86 71 -117l68 306q-63 -12 -101 -65.5t-38 -123.5zM168 -100l22 97q-73 19 -115 74t-42 135q0 117 77 201t190 88l16 70h78l-17 -77q83 -20 123 -86l-79 -60q-23 38 -65 52l-70 -313q58 6 98 52l58 -70q-70 -74 -176 -75l-20 -88h-78z"/>
<glyph glyph-name="sterling" horiz-adv-x="536" unicode="£" d="M26 268l16 70h93q-2 3 -8 15t-8.5 16.5t-7.5 15.5t-7.5 18t-5.5 17t-4 20t-1 21q0 88 74.5 152t179.5 64q81 0 143 -34.5t80 -93.5l-106 -44q-7 34 -38.5 55t-73.5 21q-55 0 -93.5 -37t-38.5 -95q0 -21 5 -38t18 -42t16 -31h144l-16 -70h-116q-3 -45 -33.5 -86.5 t-66.5 -61.5q24 7 45 7q31 0 77.5 -18t73.5 -18q49 0 85 38l27 -93q-51 -49 -121 -49q-46 0 -114 22.5t-101 22.5q-47 0 -113 -39l-22 82q66 28 109.5 76.5t43.5 100.5q0 2 -0.5 8t-0.5 8h-134z"/>
<glyph glyph-name="currency" horiz-adv-x="612" unicode="¤" d="M181 309q0 -55 35.5 -89.5t96.5 -34.5q68 0 114 50t46 118q0 55 -35 90.5t-100 35.5q-68 0 -112.5 -51t-44.5 -119zM308 91q-89 0 -151 44l-98 -80l-56 70l94 76q-24 46 -24 101q0 110 74 187l-56 73l71 57l58 -75q58 30 126 30q92 0 152 -46l97 79l55 -67l-95 -78 q25 -47 25 -101q0 -108 -75 -186l56 -69l-71 -57l-57 72q-58 -30 -125 -30z"/>
<glyph glyph-name="yen" horiz-adv-x="637" unicode="¥" d="M325 0h-117l26 118h-240l15 67h239l21 92h-239l15 67h194l-143 323h127l121 -286l245 286h141l-285 -323h192l-15 -67h-236l-21 -92h236l-15 -67h-235z"/>
<glyph glyph-name="brokenbar" horiz-adv-x="214" unicode="¦" d="M163 371h-72v316h72v-316zM163 -20h-72v316h72v-316z"/>
<glyph glyph-name="section" horiz-adv-x="477" unicode="§" d="M345 305q0 49 -80 76q-56 -7 -84 -30t-28 -54q0 -29 25 -46.5t77 -34.5q46 13 68 37t22 52zM453 328q0 -49 -31.5 -88.5t-87.5 -57.5q64 -35 64 -101q0 -68 -54.5 -115t-142.5 -47q-149 0 -228 82l61 63q26 -32 71.5 -51.5t94.5 -19.5q41 0 67 21t26 52q0 24 -25 41.5 t-61.5 30t-72.5 27.5t-61 43.5t-25 69.5q0 50 34.5 87t100.5 52q-81 35 -81 108q0 64 53 108t138 44q136 0 205 -74l-57 -58q-47 57 -144 57q-42 0 -66.5 -18.5t-24.5 -46.5q0 -24 25.5 -40.5t62 -28.5t72.5 -26.5t61.5 -43.5t25.5 -70z"/>
<glyph glyph-name="dieresis" horiz-adv-x="285" unicode="¨" d="M177 614q0 -26 -20 -45.5t-46 -19.5q-22 0 -37 15t-15 37q0 26 20 45.5t46 19.5q23 0 37.5 -15t14.5 -37zM386 614q0 -26 -20 -45.5t-46 -19.5q-22 0 -37 15t-15 37q0 26 20 45.5t46 19.5q22 0 37 -15t15 -37z"/>
<glyph glyph-name="copyright" horiz-adv-x="778" unicode="©" d="M506 207l22 -32q-64 -53 -137 -53q-87 0 -139 52.5t-52 132.5q0 100 71 169.5t163 69.5q109 0 158 -80l-35 -25q-36 68 -125 68q-72 0 -131 -58t-59 -143q0 -62 41 -105.5t109 -43.5q64 0 114 48zM720 334q0 128 -92 219.5t-220 91.5t-219 -91.5t-91 -219.5t91 -219.5 t219 -91.5t220 91.5t92 219.5zM754 334q0 -143 -101.5 -244t-244.5 -101q-142 0 -243 101t-101 244t100.5 244t243.5 101t244.5 -101t101.5 -244z"/>
<glyph glyph-name="ordfeminine" horiz-adv-x="412" unicode="ª" d="M367 640h78l-70 -314h-78l9 42q-43 -50 -100 -50q-53 0 -89 34.5t-36 98.5q0 81 49 139t120 58q73 0 108 -50zM268 586q-44 0 -75 -37.5t-31 -88.5q0 -39 21 -59.5t55 -20.5q45 0 81 40l29 131q-24 35 -80 35z"/>
<glyph glyph-name="guillemotleft" horiz-adv-x="489" unicode="«" d="M414 63h-95l-120 180l200 177h103l-204 -182zM244 63h-95l-120 180l200 177h103l-204 -182z"/>
<glyph glyph-name="logicalnot" horiz-adv-x="510" unicode="¬" d="M521 463l-57 -258h-70l42 190h-374l15 68h444z"/>
<glyph glyph-name="uni00AD" horiz-adv-x="300" unicode="­" d="M259 197h-240l20 90h240z"/>
<glyph glyph-name="registered" horiz-adv-x="494" unicode="®" d="M369 519q0 17 -11.5 27.5t-30.5 10.5h-59l-20 -88h66q24 0 39.5 14.5t15.5 35.5zM368 343h-39l-42 96h-45l-21 -96h-33l53 243h92q30 0 50.5 -18t20.5 -46q0 -35 -25 -58.5t-55 -23.5zM477 465q0 75 -53.5 128t-128.5 53q-76 0 -128.5 -52.5t-52.5 -128.5 q0 -75 53 -128.5t128 -53.5t128.5 53.5t53.5 128.5zM508 465q0 -88 -62.5 -150t-150.5 -62t-149.5 62t-61.5 150t62 150t150 62t150 -61.5t62 -150.5z"/>
<glyph glyph-name="macron" horiz-adv-x="363" unicode="¯" d="M433 566h-362l14 62h362z"/>
<glyph glyph-name="degree" horiz-adv-x="302" unicode="°" d="M287 547q0 29 -20.5 49.5t-49.5 20.5q-28 0 -48 -20.5t-20 -49.5t19.5 -49t47.5 -20q29 0 50 20.5t21 48.5zM347 547q0 -54 -38 -91.5t-92 -37.5q-53 0 -91 37.5t-38 91.5q0 53 38 91.5t91 38.5q54 0 92 -38.5t38 -91.5z"/>
<glyph glyph-name="plusminus" horiz-adv-x="502" unicode="±" d="M419 0h-444l14 67h444zM490 325h-185l-46 -208h-74l46 208h-185l15 67h185l45 201h74l-45 -201h185z"/>
<glyph glyph-name="twosuperior" horiz-adv-x="393" unicode="²" d="M391 421h-304l14 63q155 91 212 136t57 87q0 26 -21.5 40.5t-53.5 14.5q-69 0 -112 -45l-35 54q59 56 150 56q65 0 110 -29.5t45 -83.5q0 -56 -58 -108.5t-175 -119.5h185z"/>
<glyph glyph-name="threesuperior" horiz-adv-x="393" unicode="³" d="M419 534q0 -47 -42 -83.5t-111 -36.5q-59 0 -104 19.5t-67 53.5l51 48q40 -56 116 -56q36 0 56 18t20 46q0 23 -25 36.5t-68 13.5q-26 0 -32 -1l14 65q24 -2 63 -2q38 0 59 15t21 41q0 24 -24.5 37.5t-60.5 13.5q-59 0 -105 -39l-29 51q62 53 141 53q71 0 115.5 -27.5 t44.5 -77.5q0 -41 -30 -69.5t-81 -32.5q34 -7 56 -29.5t22 -56.5z"/>
<glyph glyph-name="acute" horiz-adv-x="240" unicode="´" d="M341 700l-197 -144h-77l172 144h102z"/>
<glyph glyph-name="mu" horiz-adv-x="579" unicode="µ" d="M122 24l-47 -208h-105l151 667h105l-68 -303q-4 -15 -4 -30q0 -35 22 -52.5t57 -17.5q37 0 74 18.5t63 45.5l75 339h105l-78 -352q-2 -12 -2 -16q0 -34 34 -34q10 0 20 2l-13 -89q-21 -6 -52 -6q-97 0 -99 86q-33 -38 -76.5 -62t-86.5 -24q-57 0 -75 36z"/>
<glyph glyph-name="paragraph" horiz-adv-x="449" unicode="¶" d="M315 -100h-55l158 712h-83l-158 -712h-55l94 423q-57 0 -97 44.5t-40 111.5q0 73 56.5 130.5t137.5 57.5h212z"/>
<glyph glyph-name="periodcentered" horiz-adv-x="245" unicode="·" d="M116 175q-27 0 -45.5 19t-18.5 45q0 31 22.5 53.5t54.5 22.5q26 0 44.5 -19t18.5 -46q0 -31 -22.5 -53t-53.5 -22z"/>
<glyph glyph-name="cedilla" horiz-adv-x="214" unicode="¸" d="M25 -194q-74 0 -114 40l31 43q35 -35 84 -35q26 0 40.5 11t14.5 29q0 26 -33 26q-18 0 -32 -15l-35 23l49 83h55l-40 -64q15 11 32 11q26 0 42.5 -16.5t16.5 -44.5q0 -41 -31 -66t-80 -25z"/>
<glyph glyph-name="onesuperior" horiz-adv-x="264" unicode="¹" d="M243 421h-81l64 292l-80 -66l-37 50l152 124h70z"/>
<glyph glyph-name="ordmasculine" horiz-adv-x="405" unicode="º" d="M238 381q48 0 76.5 37t28.5 86q0 36 -21.5 57.5t-57.5 21.5q-48 0 -76.5 -37t-28.5 -86q0 -36 21.5 -57.5t57.5 -21.5zM236 318q-71 0 -114 40t-43 104q0 78 55 132t132 54q71 0 114 -40.5t43 -104.5q0 -77 -55.5 -131t-131.5 -54z"/>
<glyph glyph-name="guillemotright" horiz-adv-x="489" unicode="»" d="M247 420h95l120 -180l-200 -177h-103l204 182zM77 420h95l120 -180l-200 -177h-103l204 182z"/>
<glyph glyph-name="onequarter" horiz-adv-x="806" unicode="¼" d="M712 667l-574 -667h-67l573 667h68zM621 156l38 171l-153 -171h115zM742 92h-55l-20 -92h-80l20 92h-196l12 56l220 252h112l-54 -244h55zM209 267h-81l64 292l-80 -66l-37 50l152 124h70z"/>
<glyph glyph-name="onehalf" horiz-adv-x="841" unicode="½" d="M712 667l-574 -667h-67l573 667h68zM745 0h-304l14 63q155 91 212 136t57 87q0 26 -21.5 40.5t-53.5 14.5q-69 0 -112 -45l-35 54q59 56 150 56q65 0 110 -29.5t45 -83.5q0 -56 -58 -108.5t-175 -119.5h185zM209 267h-81l64 292l-80 -66l-37 50l152 124h70z"/>
<glyph glyph-name="threequarters" horiz-adv-x="902" unicode="¾" d="M385 380q0 -47 -42 -83.5t-111 -36.5q-59 0 -104 19.5t-67 53.5l51 48q40 -56 116 -56q36 0 56 18t20 46q0 23 -25 36.5t-68 13.5q-26 0 -32 -1l14 65q24 -2 63 -2q38 0 59 15t21 41q0 24 -24.5 37.5t-60.5 13.5q-59 0 -105 -39l-29 51q62 53 141 53q71 0 115.5 -27.5 t44.5 -77.5q0 -41 -30 -69.5t-81 -32.5q34 -7 56 -29.5t22 -56.5zM808 667l-574 -667h-67l573 667h68zM718 156l38 171l-153 -171h115zM839 92h-55l-20 -92h-80l20 92h-196l12 56l220 252h112l-54 -244h55z"/>
<glyph glyph-name="questiondown" horiz-adv-x="396" unicode="¿" d="M279 493q27 0 45.5 -19t18.5 -45q0 -31 -22.5 -53.5t-54.5 -22.5q-26 0 -44.5 19t-18.5 46q0 31 22.5 53t53.5 22zM184 257l95 29q19 -29 19 -70q0 -40 -22 -70.5t-53 -49t-62 -34.5t-53 -37.5t-22 -48.5q0 -31 25.5 -49.5t73.5 -18.5q77 0 135 55l50 -80 q-88 -78 -202 -78q-89 0 -148 40t-59 107q0 49 24.5 85.5t59 57.5t69 38t59 39.5t24.5 51.5q0 19 -13 33z"/>
<glyph glyph-name="Agrave" horiz-adv-x="673" unicode="À" d="M502 723h-75l-133 144h100zM459 231l-50 318l-190 -318h240zM617 0h-127l-21 128h-306l-77 -128h-139l409 667h146z"/>
<glyph glyph-name="Aacute" horiz-adv-x="673" unicode="Á" d="M652 867l-197 -144h-77l172 144h102zM459 231l-50 318l-190 -318h240zM617 0h-127l-21 128h-306l-77 -128h-139l409 667h146z"/>
<glyph glyph-name="Acircumflex" horiz-adv-x="673" unicode="Â" d="M459 231l-50 318l-190 -318h240zM617 0h-127l-21 128h-306l-77 -128h-139l409 667h146zM583 723h-65l-56 96l-96 -96h-68l125 144h96z"/>
<glyph glyph-name="Atilde" horiz-adv-x="673" unicode="Ã" d="M511 721q-24 0 -42 12t-26.5 27t-22 27t-29.5 12q-36 0 -52 -72h-58q26 134 118 134q24 0 42 -12t26.5 -27t22 -27t29.5 -12q35 0 52 72h59q-29 -134 -119 -134zM459 231l-50 318l-190 -318h240zM617 0h-127l-21 128h-306l-77 -128h-139l409 667h146z"/>
<glyph glyph-name="Adieresis" horiz-adv-x="673" unicode="Ä" d="M459 231l-50 318l-190 -318h240zM617 0h-127l-21 128h-306l-77 -128h-139l409 667h146zM407 781q0 -26 -20 -45.5t-46 -19.5q-22 0 -37 15t-15 37q0 26 20 45.5t46 19.5q23 0 37.5 -14.5t14.5 -37.5zM616 781q0 -26 -20 -45.5t-46 -19.5q-22 0 -37 15t-15 37 q0 26 20 45.5t46 19.5q22 0 37 -14.5t15 -37.5z"/>
<glyph glyph-name="Aring" horiz-adv-x="673" unicode="Å" d="M451 740q23 0 40 16.5t17 39.5q0 21 -12.5 34t-33.5 13q-23 0 -40 -17t-17 -39q0 -21 13 -34t33 -13zM447 689q-41 0 -67 26t-26 67q0 45 33.5 78.5t78.5 33.5q41 0 67 -26t26 -67q0 -46 -33 -79t-79 -33zM459 231l-50 318l-190 -318h240zM617 0h-127l-21 128h-306 l-77 -128h-139l409 667h146z"/>
<glyph glyph-name="AE" horiz-adv-x="959" unicode="Æ" d="M452 231l68 312l-255 -312h187zM858 0h-457l28 128h-243l-105 -128h-137l557 667h504l-23 -103h-340l-38 -173h333l-23 -103h-333l-41 -185h340z"/>
<glyph glyph-name="Ccedilla" horiz-adv-x="682" unicode="Ç" d="M304 -194q-74 0 -114 40l31 43q35 -35 84 -35q26 0 40.5 11t14.5 29q0 26 -33 26q-19 0 -32 -15l-35 23l39 67q-111 20 -179.5 97t-68.5 192q0 173 113 283.5t269 110.5q107 0 179.5 -48t106.5 -127l-112 -40q-23 54 -71 82.5t-109 28.5q-103 0 -178.5 -81t-75.5 -202 q0 -88 55.5 -143.5t148.5 -55.5q96 0 166 76l89 -62q-52 -62 -121.5 -90t-140.5 -28q-14 0 -20 1l-26 -42q15 11 32 11q26 0 42.5 -16.5t16.5 -44.5q0 -41 -31 -66t-80 -25z"/>
<glyph glyph-name="Egrave" horiz-adv-x="577" unicode="È" d="M467 723h-75l-133 144h100zM474 0h-457l147 667h457l-23 -103h-340l-38 -173h333l-23 -103h-333l-41 -185h340z"/>
<glyph glyph-name="Eacute" horiz-adv-x="577" unicode="É" d="M474 0h-457l147 667h457l-23 -103h-340l-38 -173h333l-23 -103h-333l-41 -185h340zM616 867l-197 -144h-77l172 144h102z"/>
<glyph glyph-name="Ecircumflex" horiz-adv-x="577" unicode="Ê" d="M474 0h-457l147 667h457l-23 -103h-340l-38 -173h333l-23 -103h-333l-41 -185h340zM547 723h-65l-56 96l-96 -96h-68l125 144h96z"/>
<glyph glyph-name="Edieresis" horiz-adv-x="577" unicode="Ë" d="M474 0h-457l147 667h457l-23 -103h-340l-38 -173h333l-23 -103h-333l-41 -185h340zM371 781q0 -26 -20 -45.5t-46 -19.5q-22 0 -37 15t-15 37q0 26 20 45.5t46 19.5q23 0 37.5 -14.5t14.5 -37.5zM580 781q0 -26 -20 -45.5t-46 -19.5q-22 0 -37 15t-15 37q0 26 20 45.5 t46 19.5q22 0 37 -14.5t15 -37.5z"/>
<glyph glyph-name="Igrave" horiz-adv-x="259" unicode="Ì" d="M296 723h-75l-133 144h100zM134 0h-117l147 667h117z"/>
<glyph glyph-name="Iacute" horiz-adv-x="259" unicode="Í" d="M446 867l-197 -144h-77l172 144h102zM134 0h-117l147 667h117z"/>
<glyph glyph-name="Icircumflex" horiz-adv-x="259" unicode="Î" d="M134 0h-117l147 667h117zM377 723h-65l-56 96l-96 -96h-68l125 144h96z"/>
<glyph glyph-name="Idieresis" horiz-adv-x="259" unicode="Ï" d="M134 0h-117l147 667h117zM201 781q0 -26 -20 -45.5t-46 -19.5q-22 0 -37 15t-15 37q0 26 20 45.5t46 19.5q23 0 37.5 -14.5t14.5 -37.5zM410 781q0 -26 -20 -45.5t-46 -19.5q-22 0 -37 15t-15 37q0 26 20 45.5t46 19.5q22 0 37 -14.5t15 -37.5z"/>
<glyph glyph-name="Eth" horiz-adv-x="736" unicode="Ð" d="M313 103q127 1 204.5 79.5t77.5 191.5q0 81 -52 135.5t-132 54.5h-127l-41 -183h158l-21 -95h-158l-40 -183h131zM290 0h-247l63 286h-88l21 95h88l63 286h243q115 0 199.5 -81t84.5 -205q0 -55 -15 -108t-48.5 -103t-82 -87.5t-121 -60t-160.5 -22.5z"/>
<glyph glyph-name="Ntilde" horiz-adv-x="720" unicode="Ñ" d="M595 0h-113l-239 494l-109 -494h-117l147 667h120l234 -481l107 481h117zM536 721q-24 0 -42 12t-26.5 27t-22 27t-29.5 12q-36 0 -52 -72h-58q26 134 118 134q24 0 42 -12t26.5 -27t22 -27t29.5 -12q35 0 52 72h59q-29 -134 -119 -134z"/>
<glyph glyph-name="Ograve" horiz-adv-x="765" unicode="Ò" d="M377 92q105 0 179 81.5t74 201.5q0 91 -58 145t-146 54q-105 0 -179 -81.5t-74 -201.5q0 -92 57.5 -145.5t146.5 -53.5zM370 -12q-138 0 -228.5 80.5t-90.5 215.5q0 165 110.5 279.5t271.5 114.5q138 0 228.5 -80.5t90.5 -214.5q0 -166 -110.5 -280.5t-271.5 -114.5z M551 723h-75l-133 144h100z"/>
<glyph glyph-name="Oacute" horiz-adv-x="765" unicode="Ó" d="M377 92q105 0 179 81.5t74 201.5q0 91 -58 145t-146 54q-105 0 -179 -81.5t-74 -201.5q0 -92 57.5 -145.5t146.5 -53.5zM370 -12q-138 0 -228.5 80.5t-90.5 215.5q0 165 110.5 279.5t271.5 114.5q138 0 228.5 -80.5t90.5 -214.5q0 -166 -110.5 -280.5t-271.5 -114.5z M700 867l-197 -144h-77l172 144h102z"/>
<glyph glyph-name="Ocircumflex" horiz-adv-x="765" unicode="Ô" d="M377 92q105 0 179 81.5t74 201.5q0 91 -58 145t-146 54q-105 0 -179 -81.5t-74 -201.5q0 -92 57.5 -145.5t146.5 -53.5zM370 -12q-138 0 -228.5 80.5t-90.5 215.5q0 165 110.5 279.5t271.5 114.5q138 0 228.5 -80.5t90.5 -214.5q0 -166 -110.5 -280.5t-271.5 -114.5z M632 723h-65l-56 96l-96 -96h-68l125 144h96z"/>
<glyph glyph-name="Otilde" horiz-adv-x="765" unicode="Õ" d="M559 721q-24 0 -42 12t-26.5 27t-22 27t-29.5 12q-36 0 -52 -72h-58q26 134 118 134q24 0 42 -12t26.5 -27t22 -27t29.5 -12q35 0 52 72h59q-29 -134 -119 -134zM377 92q105 0 179 81.5t74 201.5q0 91 -58 145t-146 54q-105 0 -179 -81.5t-74 -201.5q0 -92 57.5 -145.5 t146.5 -53.5zM370 -12q-138 0 -228.5 80.5t-90.5 215.5q0 165 110.5 279.5t271.5 114.5q138 0 228.5 -80.5t90.5 -214.5q0 -166 -110.5 -280.5t-271.5 -114.5z"/>
<glyph glyph-name="Odieresis" horiz-adv-x="765" unicode="Ö" d="M377 92q105 0 179 81.5t74 201.5q0 91 -58 145t-146 54q-105 0 -179 -81.5t-74 -201.5q0 -92 57.5 -145.5t146.5 -53.5zM370 -12q-138 0 -228.5 80.5t-90.5 215.5q0 165 110.5 279.5t271.5 114.5q138 0 228.5 -80.5t90.5 -214.5q0 -166 -110.5 -280.5t-271.5 -114.5z M454 781q0 -26 -20 -45.5t-46 -19.5q-22 0 -37 15t-15 37q0 26 20 45.5t46 19.5q22 0 37 -14.5t15 -37.5zM663 781q0 -26 -20 -45.5t-46 -19.5q-22 0 -37 15t-15 37q0 26 20 45.5t46 19.5q23 0 37.5 -14.5t14.5 -37.5z"/>
<glyph glyph-name="multiply" horiz-adv-x="502" unicode="×" d="M375 144l-111 142l-178 -146l-42 51l180 147l-111 142l54 44l109 -142l179 146l42 -52l-179 -147l110 -142z"/>
<glyph glyph-name="Oslash" horiz-adv-x="765" unicode="Ø" d="M173 291q0 -67 31 -114l343 363q-53 34 -121 34q-105 0 -179 -81.5t-74 -201.5zM377 92q105 0 179 81.5t74 201.5q0 70 -37 121l-345 -365q52 -39 129 -39zM370 -12q-119 0 -202 59l-44 -47h-87l84 89q-70 78 -70 195q0 165 110.5 279.5t271.5 114.5q111 0 193 -54l41 43 h87l-79 -84q77 -80 77 -200q0 -166 -110.5 -280.5t-271.5 -114.5z"/>
<glyph glyph-name="Ugrave" horiz-adv-x="719" unicode="Ù" d="M526 723h-75l-133 144h100zM347 -12q-133 0 -205 61.5t-72 166.5q0 22 5 47l89 404h118l-88 -401q-4 -14 -4 -37q0 -60 41.5 -99t115.5 -39q149 0 187 175l89 401h118l-89 -403q-29 -133 -100 -204.5t-205 -71.5z"/>
<glyph glyph-name="Uacute" horiz-adv-x="719" unicode="Ú" d="M347 -12q-133 0 -205 61.5t-72 166.5q0 22 5 47l89 404h118l-88 -401q-4 -14 -4 -37q0 -60 41.5 -99t115.5 -39q149 0 187 175l89 401h118l-89 -403q-29 -133 -100 -204.5t-205 -71.5zM676 867l-197 -144h-77l172 144h102z"/>
<glyph glyph-name="Ucircumflex" horiz-adv-x="719" unicode="Û" d="M347 -12q-133 0 -205 61.5t-72 166.5q0 22 5 47l89 404h118l-88 -401q-4 -14 -4 -37q0 -60 41.5 -99t115.5 -39q149 0 187 175l89 401h118l-89 -403q-29 -133 -100 -204.5t-205 -71.5zM607 723h-65l-56 96l-96 -96h-68l125 144h96z"/>
<glyph glyph-name="Udieresis" horiz-adv-x="719" unicode="Ü" d="M347 -12q-133 0 -205 61.5t-72 166.5q0 22 5 47l89 404h118l-88 -401q-4 -14 -4 -37q0 -60 41.5 -99t115.5 -39q149 0 187 175l89 401h118l-89 -403q-29 -133 -100 -204.5t-205 -71.5zM430 781q0 -26 -20 -45.5t-46 -19.5q-22 0 -37 15t-15 37q0 26 20 45.5t46 19.5 q22 0 37 -14.5t15 -37.5zM639 781q0 -26 -20 -45.5t-46 -19.5q-22 0 -37 15t-15 37q0 26 20 45.5t46 19.5q23 0 37.5 -14.5t14.5 -37.5z"/>
<glyph glyph-name="Yacute" horiz-adv-x="637" unicode="Ý" d="M635 867l-197 -144h-77l172 144h102zM323 0h-117l61 277l-173 390h127l121 -286l245 286h141l-344 -390z"/>
<glyph glyph-name="Thorn" horiz-adv-x="608" unicode="Þ" d="M346 240q64 0 100.5 36t36.5 87q0 38 -27.5 63t-67.5 25h-155l-46 -211h159zM134 0h-117l147 667h117l-25 -113h168q77 0 129 -52.5t52 -126.5q0 -93 -67 -165.5t-199 -72.5h-175z"/>
<glyph glyph-name="germandbls" horiz-adv-x="623" unicode="ß" d="M588 151q0 -66 -54.5 -114.5t-142.5 -48.5q-70 0 -119 21t-91 68l61 67q58 -72 152 -72q41 0 65 20t24 47q0 24 -35.5 41.5t-78.5 29t-78.5 41t-35.5 75.5q0 38 18 66.5t44 45t52 29.5t44 27.5t18 32.5q0 26 -26 41.5t-63 15.5q-44 0 -74.5 -26t-41.5 -73l-107 -485h-105 l107 485q19 85 76.5 138.5t148.5 53.5q76 0 136 -37t60 -95q0 -45 -28.5 -76.5t-63 -46t-63 -35t-28.5 -45.5q0 -19 23.5 -32.5t57 -24.5t67.5 -25t57.5 -42t23.5 -67z"/>
<glyph glyph-name="agrave" horiz-adv-x="581" unicode="à" d="M416 556h-75l-133 144h100zM302 402q-69 0 -114.5 -58t-45.5 -136q0 -58 33 -92.5t86 -34.5q37 0 70.5 19t55.5 49l42 187q-17 29 -50.5 47.5t-76.5 18.5zM286 495q51 0 93.5 -21.5t66.5 -59.5l15 69h105l-107 -483h-105l14 64q-62 -76 -151 -76q-84 0 -134.5 52.5 t-50.5 146.5q0 77 29 146.5t88.5 115.5t136.5 46z"/>
<glyph glyph-name="aacute" horiz-adv-x="581" unicode="á" d="M565 700l-197 -144h-77l172 144h102zM302 402q-69 0 -114.5 -58t-45.5 -136q0 -58 33 -92.5t86 -34.5q37 0 70.5 19t55.5 49l42 187q-17 29 -50.5 47.5t-76.5 18.5zM286 495q51 0 93.5 -21.5t66.5 -59.5l15 69h105l-107 -483h-105l14 64q-62 -76 -151 -76 q-84 0 -134.5 52.5t-50.5 146.5q0 77 29 146.5t88.5 115.5t136.5 46z"/>
<glyph glyph-name="acircumflex" horiz-adv-x="581" unicode="â" d="M498 556h-65l-56 96l-96 -96h-68l125 144h96zM302 402q-69 0 -114.5 -58t-45.5 -136q0 -58 33 -92.5t86 -34.5q37 0 70.5 19t55.5 49l42 187q-17 29 -50.5 47.5t-76.5 18.5zM286 495q51 0 93.5 -21.5t66.5 -59.5l15 69h105l-107 -483h-105l14 64q-62 -76 -151 -76 q-84 0 -134.5 52.5t-50.5 146.5q0 77 29 146.5t88.5 115.5t136.5 46z"/>
<glyph glyph-name="atilde" horiz-adv-x="581" unicode="ã" d="M426 554q-24 0 -42 12t-26.5 27t-22 27t-29.5 12q-36 0 -52 -72h-58q26 134 118 134q24 0 42 -12t26.5 -27t22 -27t29.5 -12q35 0 52 72h59q-29 -134 -119 -134zM302 402q-69 0 -114.5 -58t-45.5 -136q0 -58 33 -92.5t86 -34.5q37 0 70.5 19t55.5 49l42 187 q-17 29 -50.5 47.5t-76.5 18.5zM286 495q51 0 93.5 -21.5t66.5 -59.5l15 69h105l-107 -483h-105l14 64q-62 -76 -151 -76q-84 0 -134.5 52.5t-50.5 146.5q0 77 29 146.5t88.5 115.5t136.5 46z"/>
<glyph glyph-name="adieresis" horiz-adv-x="581" unicode="ä" d="M321 614q0 -26 -20 -45.5t-46 -19.5q-22 0 -37 15t-15 37q0 26 20 45.5t46 19.5q23 0 37.5 -15t14.5 -37zM530 614q0 -26 -20 -45.5t-46 -19.5q-22 0 -37 15t-15 37q0 26 20 45.5t46 19.5q22 0 37 -15t15 -37zM302 402q-69 0 -114.5 -58t-45.5 -136q0 -58 33 -92.5 t86 -34.5q37 0 70.5 19t55.5 49l42 187q-17 29 -50.5 47.5t-76.5 18.5zM286 495q51 0 93.5 -21.5t66.5 -59.5l15 69h105l-107 -483h-105l14 64q-62 -76 -151 -76q-84 0 -134.5 52.5t-50.5 146.5q0 77 29 146.5t88.5 115.5t136.5 46z"/>
<glyph glyph-name="aring" horiz-adv-x="581" unicode="å" d="M368 587q23 0 40 16.5t17 39.5q0 21 -12.5 34t-33.5 13q-23 0 -40 -17t-17 -39q0 -21 13 -34t33 -13zM364 536q-41 0 -67 26t-26 67q0 45 33.5 78.5t78.5 33.5q41 0 67 -26t26 -67q0 -46 -33 -79t-79 -33zM302 402q-69 0 -114.5 -58t-45.5 -136q0 -58 33 -92.5t86 -34.5 q37 0 70.5 19t55.5 49l42 187q-17 29 -50.5 47.5t-76.5 18.5zM286 495q51 0 93.5 -21.5t66.5 -59.5l15 69h105l-107 -483h-105l14 64q-62 -76 -151 -76q-84 0 -134.5 52.5t-50.5 146.5q0 77 29 146.5t88.5 115.5t136.5 46z"/>
<glyph glyph-name="ae" horiz-adv-x="924" unicode="æ" d="M520 281h274q1 3 1 14q0 50 -31.5 82t-91.5 32q-56 0 -99 -38t-53 -90zM480 95l-21 -95h-105l14 64q-62 -76 -151 -76q-84 0 -134.5 52.5t-50.5 146.5q0 77 29 146.5t88.5 115.5t136.5 46q51 0 93.5 -21.5t66.5 -59.5l15 69h105l-15 -70q66 82 160 82q87 0 134 -54.5 t47 -152.5q0 -44 -10 -81h-372q-1 -3 -1 -17q0 -45 38.5 -79.5t107.5 -34.5q76 0 126 41l34 -76q-76 -53 -156 -53q-136 0 -179 107zM302 402q-69 0 -114.5 -58t-45.5 -136q0 -58 33 -92.5t86 -34.5q37 0 70.5 19t55.5 49l42 187q-17 29 -50.5 47.5t-76.5 18.5z"/>
<glyph glyph-name="ccedilla" horiz-adv-x="497" unicode="ç" d="M209 -194q-74 0 -114 40l31 43q35 -35 84 -35q26 0 40.5 11t14.5 29q0 26 -33 26q-18 0 -32 -15l-35 23l39 66q-79 16 -125 72t-46 140q0 120 80.5 204.5t196.5 84.5q134 0 190 -93l-79 -60q-35 60 -110 60q-76 0 -123.5 -56.5t-47.5 -135.5q0 -61 37.5 -95t96.5 -34 q65 0 110 52l58 -70q-71 -75 -178 -75h-10l-25 -41q15 11 32 11q26 0 42.5 -16.5t16.5 -44.5q0 -41 -31 -66t-80 -25z"/>
<glyph glyph-name="egrave" horiz-adv-x="557" unicode="è" d="M414 556h-75l-133 144h100zM150 281h277q1 3 1 14q0 49 -33 81.5t-94 32.5q-56 0 -98.5 -38t-52.5 -90zM277 -12q-113 0 -178.5 58t-65.5 158q0 120 79.5 205.5t196.5 85.5q95 0 154 -58.5t59 -155.5q0 -40 -9 -74h-374q0 -1 -0.5 -7.5t-0.5 -9.5q0 -45 39 -80.5 t108 -35.5q77 0 129 40l33 -73q-72 -53 -170 -53z"/>
<glyph glyph-name="eacute" horiz-adv-x="557" unicode="é" d="M150 281h277q1 3 1 14q0 49 -33 81.5t-94 32.5q-56 0 -98.5 -38t-52.5 -90zM277 -12q-113 0 -178.5 58t-65.5 158q0 120 79.5 205.5t196.5 85.5q95 0 154 -58.5t59 -155.5q0 -40 -9 -74h-374q0 -1 -0.5 -7.5t-0.5 -9.5q0 -45 39 -80.5t108 -35.5q77 0 129 40l33 -73 q-72 -53 -170 -53zM565 700l-197 -144h-77l172 144h102z"/>
<glyph glyph-name="ecircumflex" horiz-adv-x="557" unicode="ê" d="M150 281h277q1 3 1 14q0 49 -33 81.5t-94 32.5q-56 0 -98.5 -38t-52.5 -90zM277 -12q-113 0 -178.5 58t-65.5 158q0 120 79.5 205.5t196.5 85.5q95 0 154 -58.5t59 -155.5q0 -40 -9 -74h-374q0 -1 -0.5 -7.5t-0.5 -9.5q0 -45 39 -80.5t108 -35.5q77 0 129 40l33 -73 q-72 -53 -170 -53zM494 556h-65l-56 96l-96 -96h-68l125 144h96z"/>
<glyph glyph-name="edieresis" horiz-adv-x="557" unicode="ë" d="M150 281h277q1 3 1 14q0 49 -33 81.5t-94 32.5q-56 0 -98.5 -38t-52.5 -90zM277 -12q-113 0 -178.5 58t-65.5 158q0 120 79.5 205.5t196.5 85.5q95 0 154 -58.5t59 -155.5q0 -40 -9 -74h-374q0 -1 -0.5 -7.5t-0.5 -9.5q0 -45 39 -80.5t108 -35.5q77 0 129 40l33 -73 q-72 -53 -170 -53zM320 614q0 -26 -20 -45.5t-46 -19.5q-22 0 -37 15t-15 37q0 26 20 45.5t46 19.5q22 0 37 -15t15 -37zM529 614q0 -26 -20 -45.5t-46 -19.5q-22 0 -37 15t-15 37q0 26 20 45.5t46 19.5q23 0 37.5 -15t14.5 -37z"/>
<glyph glyph-name="igrave" horiz-adv-x="241" unicode="ì" d="M250 556h-75l-133 144h100zM119 0h-105l107 483h105z"/>
<glyph glyph-name="iacute" horiz-adv-x="241" unicode="í" d="M119 0h-105l107 483h105zM401 700l-197 -144h-77l172 144h102z"/>
<glyph glyph-name="icircumflex" horiz-adv-x="241" unicode="î" d="M119 0h-105l107 483h105zM332 556h-65l-56 96l-96 -96h-68l125 144h96z"/>
<glyph glyph-name="idieresis" horiz-adv-x="241" unicode="ï" d="M119 0h-105l107 483h105zM156 614q0 -26 -20 -45.5t-46 -19.5q-22 0 -37 15t-15 37q0 26 20 45.5t46 19.5q22 0 37 -15t15 -37zM365 614q0 -26 -20 -45.5t-46 -19.5q-22 0 -37 15t-15 37q0 26 20 45.5t46 19.5q23 0 37.5 -15t14.5 -37z"/>
<glyph glyph-name="eth" d="M268 81q66 0 111.5 51t45.5 124q0 49 -34 84t-97 35q-64 0 -109 -50t-45 -122q0 -56 33.5 -89t94.5 -33zM164 496l-15 50l130 38q-37 32 -59 48l74 77q57 -43 102 -90l110 33l15 -50l-87 -26q109 -132 109 -272q0 -133 -76.5 -224.5t-199.5 -91.5q-106 0 -171 57.5 t-65 150.5q0 114 71.5 193t174.5 79q55 0 98.5 -27t66.5 -81q-24 88 -119 183z" unicode="ð"/>
<glyph glyph-name="ntilde" horiz-adv-x="567" unicode="ñ" d="M421 554q-24 0 -42 12t-26.5 27t-22 27t-29.5 12q-36 0 -52 -72h-58q26 134 118 134q24 0 42 -12t26.5 -27t22 -27t29.5 -12q35 0 52 72h59q-29 -134 -119 -134zM445 0h-105l67 303q5 23 5 30q0 35 -23 52t-58 17q-73 0 -138 -65l-74 -337h-105l107 483h105l-15 -66 q82 78 165 78q68 0 108 -32.5t40 -89.5q0 -15 -5 -40z"/>
<glyph glyph-name="ograve" d="M417 556h-75l-133 144h100zM267 81q70 0 116.5 57.5t46.5 134.5q0 60 -33.5 94.5t-92.5 34.5q-70 0 -116.5 -58t-46.5 -134q0 -60 33.5 -94.5t92.5 -34.5zM264 -12q-108 0 -170 60t-62 157q0 116 79 203t196 87q108 0 170 -60.5t62 -157.5q0 -116 -79 -202.5t-196 -86.5z " unicode="ò"/>
<glyph glyph-name="oacute" d="M267 81q70 0 116.5 57.5t46.5 134.5q0 60 -33.5 94.5t-92.5 34.5q-70 0 -116.5 -58t-46.5 -134q0 -60 33.5 -94.5t92.5 -34.5zM264 -12q-108 0 -170 60t-62 157q0 116 79 203t196 87q108 0 170 -60.5t62 -157.5q0 -116 -79 -202.5t-196 -86.5zM565 700l-197 -144h-77 l172 144h102z" unicode="ó"/>
<glyph glyph-name="ocircumflex" d="M267 81q70 0 116.5 57.5t46.5 134.5q0 60 -33.5 94.5t-92.5 34.5q-70 0 -116.5 -58t-46.5 -134q0 -60 33.5 -94.5t92.5 -34.5zM264 -12q-108 0 -170 60t-62 157q0 116 79 203t196 87q108 0 170 -60.5t62 -157.5q0 -116 -79 -202.5t-196 -86.5zM497 556h-65l-56 96 l-96 -96h-68l125 144h96z" unicode="ô"/>
<glyph glyph-name="otilde" d="M427 554q-24 0 -42 12t-26.5 27t-22 27t-29.5 12q-36 0 -52 -72h-58q26 134 118 134q24 0 42 -12t26.5 -27t22 -27t29.5 -12q35 0 52 72h59q-29 -134 -119 -134zM267 81q70 0 116.5 57.5t46.5 134.5q0 60 -33.5 94.5t-92.5 34.5q-70 0 -116.5 -58t-46.5 -134 q0 -60 33.5 -94.5t92.5 -34.5zM264 -12q-108 0 -170 60t-62 157q0 116 79 203t196 87q108 0 170 -60.5t62 -157.5q0 -116 -79 -202.5t-196 -86.5z" unicode="õ"/>
<glyph glyph-name="odieresis" d="M267 81q70 0 116.5 57.5t46.5 134.5q0 60 -33.5 94.5t-92.5 34.5q-70 0 -116.5 -58t-46.5 -134q0 -60 33.5 -94.5t92.5 -34.5zM264 -12q-108 0 -170 60t-62 157q0 116 79 203t196 87q108 0 170 -60.5t62 -157.5q0 -116 -79 -202.5t-196 -86.5zM321 614q0 -26 -20 -45.5 t-46 -19.5q-22 0 -37 15t-15 37q0 26 20 45.5t46 19.5q23 0 37.5 -15t14.5 -37zM530 614q0 -26 -20 -45.5t-46 -19.5q-22 0 -37 15t-15 37q0 26 20 45.5t46 19.5q22 0 37 -15t15 -37z" unicode="ö"/>
<glyph glyph-name="divide" horiz-adv-x="511" unicode="÷" d="M311 465q-21 0 -35.5 15t-14.5 35q0 24 17.5 41.5t42.5 17.5q20 0 34.5 -15t14.5 -35q0 -25 -17.5 -42t-41.5 -17zM229 97q-20 0 -34.5 15t-14.5 35q0 24 17.5 41.5t41.5 17.5q21 0 35.5 -15t14.5 -35q0 -24 -18 -41.5t-42 -17.5zM495 303h-453l15 68h453z"/>
<glyph glyph-name="oslash" d="M141 210q0 -32 11 -59l235 225q-32 26 -83 26q-70 0 -116.5 -58t-46.5 -134zM267 81q70 0 116.5 57.5t46.5 134.5q0 33 -13 62l-236 -226q33 -28 86 -28zM66 0h-72l77 74q-39 55 -39 131q0 116 79 203t196 87q93 0 155 -48l37 36h73l-75 -72q42 -56 42 -134 q0 -116 -79 -202.5t-196 -86.5q-97 0 -159 49z" unicode="ø"/>
<glyph glyph-name="ugrave" horiz-adv-x="567" unicode="ù" d="M414 556h-75l-133 144h100zM121 483h105l-67 -302q-5 -23 -5 -31q0 -35 24.5 -52t65.5 -17q63 0 129 66l74 336h105l-107 -483h-105l15 66q-82 -78 -165 -78q-68 0 -108 32.5t-40 89.5q0 15 5 40z"/>
<glyph glyph-name="uacute" horiz-adv-x="567" unicode="ú" d="M121 483h105l-67 -302q-5 -23 -5 -31q0 -35 24.5 -52t65.5 -17q63 0 129 66l74 336h105l-107 -483h-105l15 66q-82 -78 -165 -78q-68 0 -108 32.5t-40 89.5q0 15 5 40zM563 700l-197 -144h-77l172 144h102z"/>
<glyph glyph-name="ucircumflex" horiz-adv-x="567" unicode="û" d="M121 483h105l-67 -302q-5 -23 -5 -31q0 -35 24.5 -52t65.5 -17q63 0 129 66l74 336h105l-107 -483h-105l15 66q-82 -78 -165 -78q-68 0 -108 32.5t-40 89.5q0 15 5 40zM495 556h-65l-56 96l-96 -96h-68l125 144h96z"/>
<glyph glyph-name="udieresis" horiz-adv-x="567" unicode="ü" d="M121 483h105l-67 -302q-5 -23 -5 -31q0 -35 24.5 -52t65.5 -17q63 0 129 66l74 336h105l-107 -483h-105l15 66q-82 -78 -165 -78q-68 0 -108 32.5t-40 89.5q0 15 5 40zM320 614q0 -26 -20 -45.5t-46 -19.5q-22 0 -37 15t-15 37q0 26 20 45.5t46 19.5q22 0 37 -15t15 -37z M529 614q0 -26 -20 -45.5t-46 -19.5q-22 0 -37 15t-15 37q0 26 20 45.5t46 19.5q23 0 37.5 -15t14.5 -37z"/>
<glyph glyph-name="yacute" horiz-adv-x="503" unicode="ý" d="M529 700l-197 -144h-77l172 144h102zM-47 -185l35 92q18 -8 48 -8q38 0 65 40l38 58l-88 486h109l60 -362l222 362h116l-360 -570q-37 -58 -77 -83.5t-95 -25.5q-42 0 -73 11z"/>
<glyph glyph-name="thorn" horiz-adv-x="578" unicode="þ" d="M278 81q69 0 114.5 57.5t45.5 135.5q0 58 -33.5 93t-85.5 35q-74 0 -127 -69l-41 -187q17 -29 50.5 -47t76.5 -18zM294 -12q-108 0 -160 81l-56 -253h-105l188 851h105l-55 -248q64 76 152 76q83 0 134 -53t51 -147q0 -120 -70 -213.5t-184 -93.5z"/>
<glyph glyph-name="OE" horiz-adv-x="1093" unicode="Œ" d="M581 211l46 210q-16 72 -67 112t-127 40q-110 0 -185 -82t-75 -200q0 -90 55 -144.5t142 -54.5q63 0 119.5 32t91.5 87zM991 0h-457l19 87q-81 -99 -222 -99q-121 0 -200.5 83t-79.5 213q0 86 30.5 160t82 124.5t120.5 79.5t144 29q167 0 227 -132l26 122h457l-22 -103 h-340l-38 -173h333l-23 -103h-333l-41 -185h340z"/>
<glyph glyph-name="oe" horiz-adv-x="944" unicode="œ" d="M426 273q0 64 -35.5 96.5t-88.5 32.5q-67 0 -114 -56.5t-47 -135.5q0 -60 33 -94.5t91 -34.5q69 0 115 56.5t46 135.5zM543 281h273q1 4 1 14q0 49 -32 81.5t-92 32.5q-58 0 -100.5 -40t-49.5 -88zM902 207h-370q0 -1 -0.5 -7t-0.5 -10q0 -47 38.5 -81.5t106.5 -34.5 q76 0 127 40l33 -73q-70 -53 -168 -53q-78 0 -132 37.5t-70 82.5q-21 -26 -34.5 -40.5t-40 -36.5t-58.5 -32.5t-71 -10.5q-104 0 -167 58t-63 159q0 115 77.5 202.5t195.5 87.5q74 0 123.5 -38t65.5 -83q18 24 34 40.5t42 37.5t59.5 32t70.5 11q91 0 151 -57t60 -157 q0 -33 -9 -74z"/>
<glyph glyph-name="Scaron" horiz-adv-x="594" unicode="Š" d="M294 -12q-93 0 -170.5 34t-117.5 88l75 86q35 -48 94.5 -76t128.5 -28q59 0 89.5 29t30.5 67q0 30 -33.5 52t-82 39.5t-96.5 38.5t-81.5 60t-33.5 92q0 84 69.5 145.5t180.5 61.5q79 0 147 -28.5t108 -78.5l-75 -83q-34 42 -87 64.5t-109 22.5q-46 0 -78 -25.5t-32 -59.5 q0 -27 34 -48.5t82 -39t96 -39t82 -60.5t34 -93q0 -91 -69 -156t-186 -65zM456 723h-96l-64 144h64l56 -97l96 97h69z"/>
<glyph glyph-name="scaron" horiz-adv-x="472" unicode="š" d="M214 -12q-141 0 -218 86l62 73q22 -30 68.5 -53t96.5 -23q39 0 63 19t24 46q0 25 -39 44.5t-85.5 32.5t-85.5 45t-39 80q0 65 51.5 111t140.5 46q60 0 112.5 -22t83.5 -57l-56 -69q-18 25 -59 44.5t-84 19.5q-39 0 -62 -16t-23 -41q0 -19 25.5 -33.5t62.5 -27t74 -27.5 t62.5 -44t25.5 -69q0 -70 -54.5 -117.5t-146.5 -47.5zM357 556h-96l-64 144h64l56 -97l96 97h69z"/>
<glyph glyph-name="Ydieresis" horiz-adv-x="637" unicode="Ÿ" d="M323 0h-117l61 277l-173 390h127l121 -286l245 286h141l-344 -390zM391 781q0 -26 -20 -45.5t-46 -19.5q-22 0 -37 15t-15 37q0 26 20 45.5t46 19.5q23 0 37.5 -14.5t14.5 -37.5zM600 781q0 -26 -20 -45.5t-46 -19.5q-22 0 -37 15t-15 37q0 26 20 45.5t46 19.5 q22 0 37 -14.5t15 -37.5z"/>
<glyph glyph-name="circumflex" horiz-adv-x="285" unicode="ˆ" d="M354 556h-65l-56 96l-96 -96h-68l125 144h96z"/>
<glyph glyph-name="tilde" horiz-adv-x="321" unicode="˜" d="M300 554q-24 0 -42 12t-26.5 27t-22 27t-29.5 12q-36 0 -52 -72h-58q26 134 118 134q24 0 42 -12t26.5 -27t22 -27t29.5 -12q35 0 52 72h59q-29 -134 -119 -134z"/>
<glyph glyph-name="Alpha" horiz-adv-x="673" unicode="Α" d="M459 231l-50 318l-190 -318h240zM617 0h-127l-21 128h-306l-77 -128h-139l409 667h146z"/>
<glyph glyph-name="Beta" horiz-adv-x="648" unicode="Β" d="M351 103q55 0 87 30.5t32 74.5q0 36 -23.5 58t-64.5 22h-185l-41 -185h195zM411 391q56 0 82 29t26 70q0 31 -24 52.5t-58 21.5h-179l-38 -173h191zM357 0h-340l147 667h304q79 0 127.5 -45t48.5 -112q0 -68 -45.5 -119t-107.5 -57q44 -12 70.5 -51t26.5 -85 q0 -80 -58.5 -139t-172.5 -59z"/>
<glyph glyph-name="Gamma" horiz-adv-x="562" unicode="Γ" d="M134 0h-117l147 667h457l-23 -103h-340z"/>
<glyph glyph-name="uni0394" horiz-adv-x="673" unicode="Δ" d="M480 103l-71 446l-267 -446h338zM617 0h-670l409 667h146z"/>
<glyph glyph-name="Epsilon" horiz-adv-x="577" unicode="Ε" d="M474 0h-457l147 667h457l-23 -103h-340l-38 -173h333l-23 -103h-333l-41 -185h340z"/>
<glyph glyph-name="Zeta" horiz-adv-x="589" unicode="Ζ" d="M490 0h-500l21 95l437 469h-333l22 103h493l-20 -95l-439 -469h342z"/>
<glyph glyph-name="Eta" horiz-adv-x="723" unicode="Η" d="M598 0h-117l64 291h-347l-64 -291h-117l147 667h117l-60 -273h347l60 273h117z"/>
<glyph glyph-name="Theta" horiz-adv-x="765" unicode="Θ" d="M377 92q105 0 179 81.5t74 201.5q0 91 -58 145t-146 54q-105 0 -179 -81.5t-74 -201.5q0 -92 57.5 -145.5t146.5 -53.5zM370 -12q-138 0 -228.5 80.5t-90.5 215.5q0 165 110.5 279.5t271.5 114.5q138 0 228.5 -80.5t90.5 -214.5q0 -166 -110.5 -280.5t-271.5 -114.5z M554 288h-332l23 103h332z"/>
<glyph glyph-name="Iota" horiz-adv-x="259" unicode="Ι" d="M134 0h-117l147 667h117z"/>
<glyph glyph-name="Kappa" horiz-adv-x="621" unicode="Κ" d="M560 0h-137l-165 286l-77 -73l-47 -213h-117l147 667h117l-68 -308l322 308h152l-340 -315z"/>
<glyph glyph-name="Lambda" horiz-adv-x="673" unicode="Λ" d="M617 0h-127l-81 549l-323 -549h-139l409 667h146z"/>
<glyph glyph-name="Mu" horiz-adv-x="835" unicode="Μ" d="M710 0h-117l113 515l-318 -515h-50l-91 515l-113 -515h-117l147 667h160l80 -459l283 459h170z"/>
<glyph glyph-name="Nu" horiz-adv-x="720" unicode="Ν" d="M595 0h-113l-239 494l-109 -494h-117l147 667h120l234 -481l107 481h117z"/>
<glyph glyph-name="Xi" horiz-adv-x="621" unicode="Ξ" d="M575 288h-508l23 103h508zM519 0h-521l22 103h521zM643 564h-521l22 103h521z"/>
<glyph glyph-name="Omicron" horiz-adv-x="765" unicode="Ο" d="M377 92q105 0 179 81.5t74 201.5q0 91 -58 145t-146 54q-105 0 -179 -81.5t-74 -201.5q0 -92 57.5 -145.5t146.5 -53.5zM370 -12q-138 0 -228.5 80.5t-90.5 215.5q0 165 110.5 279.5t271.5 114.5q138 0 228.5 -80.5t90.5 -214.5q0 -166 -110.5 -280.5t-271.5 -114.5z"/>
<glyph glyph-name="Pi" horiz-adv-x="723" unicode="Π" d="M598 0h-117l124 564h-347l-124 -564h-117l147 667h581z"/>
<glyph glyph-name="Rho" horiz-adv-x="608" unicode="Ρ" d="M211 352h160q63 0 100 35.5t37 88.5q0 37 -27 62.5t-68 25.5h-155zM134 0h-117l147 667h268q93 0 145.5 -51.5t52.5 -128.5q0 -32 -8.5 -63.5t-28.5 -63.5t-49.5 -56t-76 -39.5t-104.5 -15.5h-174z"/>
<glyph glyph-name="Sigma" horiz-adv-x="560" unicode="Σ" d="M271 564l166 -228l-265 -233h312l-22 -103h-458l24 113l268 238l-164 223l20 93h457l-23 -103h-315z"/>
<glyph glyph-name="Tau" horiz-adv-x="577" unicode="Τ" d="M293 0h-117l124 564h-202l23 103h521l-23 -103h-202z"/>
<glyph glyph-name="Upsilon" horiz-adv-x="637" unicode="Υ" d="M323 0h-117l61 277l-173 390h127l121 -286l245 286h141l-344 -390z"/>
<glyph glyph-name="Phi" horiz-adv-x="834" unicode="Φ" d="M698 361q0 54 -42 89t-122 45l-74 -324q111 11 174.5 62t63.5 128zM179 304q0 -54 42 -89t122 -44l74 324q-112 -11 -175 -62.5t-63 -128.5zM421 0h-117l15 68q-130 13 -196.5 73.5t-66.5 162.5q0 122 108 205t277 92l15 66h117l-16 -69q264 -29 264 -237 q0 -122 -108.5 -205t-276.5 -91z"/>
<glyph glyph-name="Chi" horiz-adv-x="661" unicode="Χ" d="M603 0h-132l-135 256l-239 -256h-148l328 349l-166 318h133l123 -240l220 240h148l-309 -332z"/>
<glyph glyph-name="Psi" horiz-adv-x="836" unicode="Ψ" d="M423 0h-117l29 128q-233 26 -233 211q0 35 10 80l57 248h118l-60 -264q-6 -24 -6 -48q0 -50 34 -82.5t103 -41.5l100 436h117l-99 -435q174 23 208 171l60 264h119l-65 -288q-24 -106 -116 -175.5t-231 -78.5z"/>
<glyph glyph-name="alpha" horiz-adv-x="595" unicode="α" d="M261 81q36 0 70 19t56 49l42 187q-17 29 -50.5 47.5t-76.5 18.5q-69 0 -114.5 -58t-45.5 -136q0 -58 33 -92.5t86 -34.5zM540 83l-13 -89q-21 -6 -52 -6q-98 0 -98 87q-71 -87 -160 -87q-84 0 -134.5 52.5t-50.5 146.5q0 77 29 146.5t88.5 115.5t136.5 46 q51 0 93.5 -21.5t66.5 -59.5l15 69h105l-78 -352q-2 -12 -2 -16q0 -34 34 -34q10 0 20 2z"/>
<glyph glyph-name="beta" horiz-adv-x="581" unicode="β" d="M221 451l-70 -307q33 -63 122 -63q69 0 111 36.5t42 91.5q0 41 -30.5 62.5t-82.5 21.5h-37l21 93h34q63 0 104.5 31.5t41.5 85.5q0 37 -26.5 58.5t-72.5 21.5q-53 0 -98 -35t-59 -97zM294 -12q-112 0 -161 77l-56 -249h-105l144 635q26 114 105.5 170t172.5 56 q92 0 144.5 -40t52.5 -113q0 -72 -55 -120.5t-124 -59.5q49 -8 84.5 -42t35.5 -97q0 -93 -72.5 -155t-165.5 -62z"/>
<glyph glyph-name="gamma" horiz-adv-x="503" unicode="γ" d="M208 -184h-105l27 119q20 86 20 178q0 109 -28 205.5t-78 164.5h120q36 -53 58.5 -138t22.5 -166q0 -30 -3 -55q60 66 114.5 167t74.5 192h105q-27 -117 -105.5 -248t-179.5 -230z"/>
<glyph glyph-name="delta" d="M435 247q0 30 -10.5 52t-34.5 38.5t-42 25.5t-52 22q-73 -24 -114 -73.5t-41 -108.5q0 -52 32.5 -87t95.5 -35q70 0 118 49.5t48 116.5zM260 -12q-113 0 -171.5 57t-58.5 145q0 77 50 141.5t129 96.5q-50 35 -50 93q0 63 62 110.5t155 47.5q119 0 182 -68l-60 -68 q-45 52 -131 52q-45 0 -74.5 -19.5t-29.5 -46.5q0 -21 28.5 -37t69 -31t81 -36.5t69 -64.5t28.5 -103q0 -106 -79 -187.5t-200 -81.5z" unicode="δ"/>
<glyph glyph-name="epsilon" horiz-adv-x="508" unicode="ε" d="M220 -12q-105 0 -157 34.5t-52 92.5t55 93t112 39q-45 7 -74.5 33.5t-29.5 65.5q0 66 71 107.5t176 41.5q130 0 200 -80l-65 -62q-47 56 -134 56q-62 0 -101.5 -19.5t-39.5 -50.5q0 -53 105 -53h103l-19 -84h-103q-143 0 -143 -72q0 -25 27.5 -40.5t77.5 -15.5 q106 0 186 59l36 -69q-99 -76 -231 -76z"/>
<glyph glyph-name="zeta" horiz-adv-x="487" unicode="ζ" d="M283 -33q0 21 -38 21q-103 0 -161 48t-58 131q0 117 96.5 222.5t263.5 185.5h-255l21 92h392l-18 -77q-175 -87 -281.5 -190.5t-106.5 -210.5q0 -53 37 -80.5t104 -27.5q63 0 91.5 -18t28.5 -56q0 -58 -84 -164h-117q85 85 85 124z"/>
<glyph glyph-name="eta" horiz-adv-x="567" unicode="η" d="M403 -184h-105l109 487q5 23 5 30q0 35 -24.5 52t-65.5 17q-64 0 -129 -65l-74 -337h-105l107 483h105l-15 -66q82 78 165 78q68 0 108 -32.5t40 -89.5q0 -15 -5 -40z"/>
<glyph glyph-name="theta" d="M348 586q-57 0 -103 -58.5t-71 -146.5h288q3 24 3 48q0 71 -28.5 114t-88.5 43zM270 81q58 0 103.5 60t70.5 148h-289q-3 -27 -3 -52q0 -71 29 -113.5t89 -42.5zM264 -12q-102 0 -160 70t-58 195q0 106 37.5 202.5t110 160t162.5 63.5q102 0 159 -70.5t57 -195.5 q0 -106 -37 -202.5t-109 -159.5t-162 -63z" unicode="θ"/>
<glyph glyph-name="iota" horiz-adv-x="253" unicode="ι" d="M133 -12q-101 0 -101 84q0 17 5 40l85 371h105l-81 -352q-2 -12 -2 -16q0 -34 34 -34q10 0 20 2l-13 -89q-21 -6 -52 -6z"/>
<glyph glyph-name="kappa" horiz-adv-x="526" unicode="κ" d="M466 0h-127l-106 202l-86 -72l-28 -130h-105l107 483h105l-51 -227l259 227h135l-250 -219z"/>
<glyph glyph-name="lambda" horiz-adv-x="503" unicode="λ" d="M140 577l6 94q26 8 60 8q60 -2 95.5 -26.5t45.5 -82.5l104 -570h-109l-60 362l-222 -362h-116l309 488l-11 55q-9 43 -60 43q-24 0 -42 -9z"/>
<glyph glyph-name="uni03BC" horiz-adv-x="579" unicode="μ" d="M122 24l-47 -208h-105l151 667h105l-68 -303q-4 -15 -4 -30q0 -35 22 -52.5t57 -17.5q37 0 74 18.5t63 45.5l75 339h105l-78 -352q-2 -12 -2 -16q0 -34 34 -34q10 0 20 2l-13 -89q-21 -6 -52 -6q-97 0 -99 86q-33 -38 -76.5 -62t-86.5 -24q-57 0 -75 36z"/>
<glyph glyph-name="nu" horiz-adv-x="503" unicode="ν" d="M246 0h-105l-87 483h112l60 -378q73 80 128.5 182t76.5 196h105q-27 -118 -107.5 -251t-182.5 -232z"/>
<glyph glyph-name="xi" horiz-adv-x="487" unicode="ξ" d="M249 -12q-114 0 -172.5 40.5t-58.5 115.5q0 73 49.5 119t118.5 61q-38 7 -65.5 33t-27.5 72q0 44 39 86t94 60h-92l22 92h382l-22 -92h-189q-48 -12 -83 -45t-35 -70q0 -36 31.5 -55.5t83.5 -19.5h145l-21 -90h-141q-78 0 -126 -32.5t-48 -93.5q0 -42 38 -65t108 -23 q63 0 91.5 -18t28.5 -56q0 -58 -84 -164h-112q80 89 80 124q0 21 -34 21z"/>
<glyph glyph-name="omicron" d="M267 81q70 0 116.5 57.5t46.5 134.5q0 60 -33.5 94.5t-92.5 34.5q-70 0 -116.5 -58t-46.5 -134q0 -60 33.5 -94.5t92.5 -34.5zM264 -12q-108 0 -170 60t-62 157q0 116 79 203t196 87q108 0 170 -60.5t62 -157.5q0 -116 -79 -202.5t-196 -86.5z" unicode="ο"/>
<glyph glyph-name="pi" horiz-adv-x="610" unicode="π" d="M467 0h-105l89 391h-222l-89 -391h-105l89 391h-80l21 92h592l-21 -92h-80z"/>
<glyph glyph-name="rho" horiz-adv-x="578" unicode="ρ" d="M278 81q69 0 114.5 57.5t45.5 135.5q0 55 -28 91.5t-79 36.5q-60 0 -101 -44.5t-58 -115.5l-21 -96q17 -29 50.5 -47t76.5 -18zM294 -12q-50 0 -93 21.5t-67 59.5l-57 -253h-105l96 426q25 115 98.5 184t179.5 69q96 0 149 -58.5t53 -151.5q0 -114 -70.5 -205.5 t-183.5 -91.5z"/>
<glyph glyph-name="sigma1" horiz-adv-x="488" unicode="ς" d="M251 -12q-94 0 -156 59t-62 159q0 120 80.5 204.5t196.5 84.5q134 0 190 -93l-79 -60q-35 60 -110 60q-76 0 -123.5 -56.5t-47.5 -135.5q0 -129 156 -129q107 0 107 -77q0 -55 -84 -161h-114q85 85 85 123q0 22 -39 22z"/>
<glyph glyph-name="sigma" d="M430 266q0 91 -52 124h-48q-84 0 -136 -54t-52 -126q0 -60 33 -94.5t92 -34.5q70 0 116.5 56.5t46.5 128.5zM530 268q0 -111 -75 -195.5t-191 -84.5q-108 0 -169.5 60t-61.5 157q0 115 88 196.5t221 81.5h265l-21 -93h-101q45 -45 45 -122z" unicode="σ"/>
<glyph glyph-name="tau" horiz-adv-x="476" unicode="τ" d="M286 -12q-58 0 -94.5 24t-36.5 73q0 9 4 31l61 275h-162l21 92h430l-21 -92h-163l-57 -258q-1 -4 -1 -12q0 -20 14 -30t35 -10q25 0 40 13l6 -84q-28 -22 -76 -22z"/>
<glyph glyph-name="upsilon" horiz-adv-x="570" unicode="υ" d="M258 -12q-99 0 -149.5 47.5t-50.5 127.5q0 36 8 68l58 252h105l-61 -266q-5 -20 -5 -45q0 -91 95 -91q78 0 131.5 74t53.5 174q0 75 -30 132l98 34q35 -63 35 -163q0 -145 -82 -244.5t-206 -99.5z"/>
<glyph glyph-name="phi" horiz-adv-x="773" unicode="φ" d="M475 399l-72 -316q116 10 172 62.5t56 124.5q0 58 -39.5 92t-116.5 37zM743 270q0 -114 -96 -194t-265 -87l-39 -173h-105l40 176q-118 13 -181 72.5t-63 156.5q0 92 66 162t179 112l26 -82q-76 -29 -118 -78.5t-42 -113.5q0 -121 154 -138l93 412h52q140 0 219.5 -60 t79.5 -165z"/>
<glyph glyph-name="chi" horiz-adv-x="496" unicode="χ" d="M395 -184h-112l-71 245l-184 -245h-119l255 343l-93 324h112l65 -226l168 226h120l-241 -324z"/>
<glyph glyph-name="psi" horiz-adv-x="773" unicode="ψ" d="M343 -184h-105l40 176q-217 22 -217 187q0 29 8 66l55 238h105l-57 -251q-5 -17 -5 -38q0 -45 34 -73.5t98 -36.5l133 583h105l-133 -583q78 9 129 47.5t66 100.5l57 251h105l-61 -266q-23 -99 -105.5 -160t-212.5 -68z"/>
<glyph glyph-name="afii10023" horiz-adv-x="577" unicode="Ё" d="M474 0h-457l147 667h457l-23 -103h-340l-38 -173h333l-23 -103h-333l-41 -185h340zM371 781q0 -26 -20 -45.5t-46 -19.5q-22 0 -37 15t-15 37q0 26 20 45.5t46 19.5q23 0 37.5 -14.5t14.5 -37.5zM580 781q0 -26 -20 -45.5t-46 -19.5q-22 0 -37 15t-15 37q0 26 20 45.5 t46 19.5q22 0 37 -14.5t15 -37.5z"/>
<glyph glyph-name="afii10051" horiz-adv-x="764" unicode="Ђ" d="M447 -12l23 104q54 0 91.5 28t47.5 74l2 10q4 20 4 29q0 39 -29 60.5t-85 21.5q-75 0 -145 -25l-63 -290h-117l124 564h-202l22 103h521l-22 -103h-202l-38 -171q75 25 156 25q99 0 149 -45t50 -118q0 -24 -6 -51l-2 -10q-22 -100 -99.5 -153t-179.5 -53z"/>
<glyph glyph-name="afii10052" horiz-adv-x="562" unicode="Ѓ" d="M134 0h-117l147 667h457l-23 -103h-340zM622 867l-197 -144h-77l172 144h102z"/>
<glyph glyph-name="afii10053" horiz-adv-x="682" unicode="Є" d="M370 -12q-138 0 -228.5 81.5t-90.5 214.5q0 173 113 283.5t269 110.5q107 0 179.5 -48t106.5 -127l-112 -40q-23 54 -71 82.5t-109 28.5q-79 0 -145 -50t-94 -133h365l-23 -103h-357q1 -87 56.5 -141.5t147.5 -54.5q96 0 166 76l89 -62q-52 -62 -121.5 -90t-140.5 -28z "/>
<glyph glyph-name="afii10054" horiz-adv-x="594" unicode="Ѕ" d="M294 -12q-93 0 -170.5 34t-117.5 88l75 86q35 -48 94.5 -76t128.5 -28q59 0 89.5 29t30.5 67q0 30 -33.5 52t-82 39.5t-96.5 38.5t-81.5 60t-33.5 92q0 84 69.5 145.5t180.5 61.5q79 0 147 -28.5t108 -78.5l-75 -83q-34 42 -87 64.5t-109 22.5q-46 0 -78 -25.5t-32 -59.5 q0 -27 34 -48.5t82 -39t96 -39t82 -60.5t34 -93q0 -91 -69 -156t-186 -65z"/>
<glyph glyph-name="afii10055" horiz-adv-x="259" unicode="І" d="M134 0h-117l147 667h117z"/>
<glyph glyph-name="afii10056" horiz-adv-x="259" unicode="Ї" d="M134 0h-117l147 667h117zM201 781q0 -26 -20 -45.5t-46 -19.5q-22 0 -37 15t-15 37q0 26 20 45.5t46 19.5q23 0 37.5 -14.5t14.5 -37.5zM410 781q0 -26 -20 -45.5t-46 -19.5q-22 0 -37 15t-15 37q0 26 20 45.5t46 19.5q22 0 37 -14.5t15 -37.5z"/>
<glyph glyph-name="afii10057" horiz-adv-x="481" unicode="Ј" d="M162 -12q-128 0 -188 79l65 86q38 -61 115 -61q105 0 132 121l100 454h117l-100 -456q-25 -114 -84.5 -168.5t-156.5 -54.5z"/>
<glyph glyph-name="afii10058" horiz-adv-x="1072" unicode="Љ" d="M822 315h-155l-47 -212h157q65 0 102.5 35.5t37.5 88.5q0 37 -27 62.5t-68 25.5zM-29 -12l23 104q58 0 96.5 45.5t86.5 186.5l114 343h453l-55 -249h152q93 0 145.5 -51.5t52.5 -128.5q0 -32 -8.5 -63.5t-28.5 -63.5t-49.5 -56t-76 -39.5t-104.5 -15.5h-291l124 564h-231 l-83 -248q-34 -103 -70.5 -170t-77.5 -100.5t-80 -45.5t-92 -12z"/>
<glyph glyph-name="afii10059" horiz-adv-x="1072" unicode="Њ" d="M830 291h-169l-41 -188h172q57 0 90.5 31.5t33.5 78.5q0 33 -24 55.5t-62 22.5zM784 0h-303l63 291h-347l-63 -291h-117l146 667h117l-60 -273h347l60 273h117l-60 -273h165q88 0 137.5 -48.5t49.5 -121.5q0 -38 -13.5 -75t-41 -71.5t-79 -56t-118.5 -21.5z"/>
<glyph glyph-name="afii10060" horiz-adv-x="790" unicode="Ћ" d="M567 0l38 177q6 27 6 48q0 90 -110 90q-75 0 -145 -25l-63 -290h-117l124 564h-202l22 103h521l-22 -103h-202l-38 -171q75 25 156 25q99 0 147.5 -44t48.5 -124q0 -34 -9 -73l-38 -177h-117z"/>
<glyph glyph-name="afii10061" horiz-adv-x="621" unicode="Ќ" d="M560 0h-137l-165 286l-77 -73l-47 -213h-117l147 667h117l-68 -308l322 308h152l-340 -315zM637 867l-197 -144h-77l172 144h102z"/>
<glyph glyph-name="afii10062" horiz-adv-x="637" unicode="Ў" d="M601 789q-85 -88 -194 -88q-53 0 -94 23.5t-63 64.5l55 40q33 -66 113 -66q79 0 142 66zM94 -12q-42 0 -77.5 14t-48.5 32l62 96q34 -38 79 -38q35 0 60 18.5t60 65.5l5 8l-141 483h126l98 -389l270 389h140l-397 -542q-50 -68 -103.5 -102.5t-132.5 -34.5z"/>
<glyph glyph-name="afii10145" horiz-adv-x="723" unicode="Џ" d="M220 -128l28 128h-231l146 667h117l-124 -564h347l124 564h117l-146 -667h-233l-28 -128h-117z"/>
<glyph glyph-name="afii10017" horiz-adv-x="673" unicode="А" d="M459 231l-50 318l-190 -318h240zM617 0h-127l-21 128h-306l-77 -128h-139l409 667h146z"/>
<glyph glyph-name="afii10018" horiz-adv-x="608" unicode="Б" d="M358 315h-155l-47 -212h160q63 0 100 35.5t37 88.5q0 37 -27 62.5t-68 25.5zM163 667h457l-22 -103h-340l-33 -146h153q91 0 144 -52t53 -128q0 -40 -14 -79.5t-43.5 -76.5t-83 -59.5t-124.5 -22.5h-293z"/>
<glyph glyph-name="afii10019" horiz-adv-x="648" unicode="В" d="M351 103q55 0 87 30.5t32 74.5q0 36 -23.5 58t-64.5 22h-185l-41 -185h195zM411 391q56 0 82 29t26 70q0 31 -24 52.5t-58 21.5h-179l-38 -173h191zM357 0h-340l147 667h304q79 0 127.5 -45t48.5 -112q0 -68 -45.5 -119t-107.5 -57q44 -12 70.5 -51t26.5 -85 q0 -80 -58.5 -139t-172.5 -59z"/>
<glyph glyph-name="afii10020" horiz-adv-x="562" unicode="Г" d="M134 0h-117l147 667h457l-23 -103h-340z"/>
<glyph glyph-name="afii10021" horiz-adv-x="732" unicode="Д" d="M374 564l-83 -248q-50 -148 -135 -213h347l102 461h-231zM-53 -123l47 215q41 6 66 21t55 65.5t62 145.5l114 343h453l-124 -564h62l-50 -226h-117l27 123h-452l-27 -123h-116z"/>
<glyph glyph-name="afii10022" horiz-adv-x="577" unicode="Е" d="M474 0h-457l147 667h457l-23 -103h-340l-38 -173h333l-23 -103h-333l-41 -185h340z"/>
<glyph glyph-name="afii10024" horiz-adv-x="933" unicode="Ж" d="M107 0h-154l368 352l-202 315h135l180 -300l66 300h117l-60 -275l286 275h155l-340 -315l214 -352h-134l-166 287l-48 -45l-53 -242h-117l53 241l-21 34z"/>
<glyph glyph-name="afii10025" horiz-adv-x="599" unicode="З" d="M287 -12q-94 0 -171.5 37.5t-109.5 101.5l80 69q28 -49 83 -76.5t117 -27.5q65 0 103 31.5t38 80.5q0 38 -35.5 61t-102.5 23h-132l23 103h151q64 0 106 24t42 71q0 38 -40 62.5t-105 24.5q-99 0 -170 -59l-44 80q40 38 100.5 60.5t123.5 22.5q114 0 184.5 -46t70.5 -126 q0 -67 -55 -113.5t-125 -53.5q54 -13 88.5 -49.5t34.5 -95.5q0 -87 -74 -146t-181 -59z"/>
<glyph glyph-name="afii10026" horiz-adv-x="720" unicode="И" d="M130 0h-113l147 667h117l-106 -481l447 481h120l-147 -667h-118l110 494z"/>
<glyph glyph-name="afii10027" horiz-adv-x="720" unicode="Й" d="M651 789q-85 -88 -194 -88q-53 0 -94 23.5t-63 64.5l55 40q33 -66 113 -66q79 0 142 66zM130 0h-113l147 667h117l-106 -481l447 481h120l-147 -667h-118l110 494z"/>
<glyph glyph-name="afii10028" horiz-adv-x="621" unicode="К" d="M560 0h-137l-165 286l-77 -73l-47 -213h-117l147 667h117l-68 -308l322 308h152l-340 -315z"/>
<glyph glyph-name="afii10029" horiz-adv-x="723" unicode="Л" d="M-29 -12l23 104q58 0 96.5 45.5t86.5 186.5l114 343h453l-146 -667h-117l124 564h-231l-83 -248q-34 -103 -70.5 -170t-77.5 -100.5t-80 -45.5t-92 -12z"/>
<glyph glyph-name="afii10030" horiz-adv-x="835" unicode="М" d="M710 0h-117l113 515l-318 -515h-50l-91 515l-113 -515h-117l147 667h160l80 -459l283 459h170z"/>
<glyph glyph-name="afii10031" horiz-adv-x="723" unicode="Н" d="M598 0h-117l64 291h-347l-64 -291h-117l147 667h117l-60 -273h347l60 273h117z"/>
<glyph glyph-name="afii10032" horiz-adv-x="765" unicode="О" d="M377 92q105 0 179 81.5t74 201.5q0 91 -58 145t-146 54q-105 0 -179 -81.5t-74 -201.5q0 -92 57.5 -145.5t146.5 -53.5zM370 -12q-138 0 -228.5 80.5t-90.5 215.5q0 165 110.5 279.5t271.5 114.5q138 0 228.5 -80.5t90.5 -214.5q0 -166 -110.5 -280.5t-271.5 -114.5z"/>
<glyph glyph-name="afii10033" horiz-adv-x="723" unicode="П" d="M598 0h-117l124 564h-347l-124 -564h-117l147 667h581z"/>
<glyph glyph-name="afii10034" horiz-adv-x="608" unicode="Р" d="M211 352h160q63 0 100 35.5t37 88.5q0 37 -27 62.5t-68 25.5h-155zM134 0h-117l147 667h268q93 0 145.5 -51.5t52.5 -128.5q0 -32 -8.5 -63.5t-28.5 -63.5t-49.5 -56t-76 -39.5t-104.5 -15.5h-174z"/>
<glyph glyph-name="afii10035" horiz-adv-x="682" unicode="С" d="M370 -12q-138 0 -228.5 81.5t-90.5 214.5q0 173 113 283.5t269 110.5q107 0 179.5 -48t106.5 -127l-112 -40q-23 54 -71 82.5t-109 28.5q-103 0 -178.5 -81t-75.5 -202q0 -88 55.5 -143.5t148.5 -55.5q96 0 166 76l89 -62q-52 -62 -121.5 -90t-140.5 -28z"/>
<glyph glyph-name="afii10036" horiz-adv-x="577" unicode="Т" d="M293 0h-117l124 564h-202l23 103h521l-23 -103h-202z"/>
<glyph glyph-name="afii10037" horiz-adv-x="637" unicode="У" d="M94 -12q-42 0 -77.5 14t-48.5 32l62 96q34 -38 79 -38q35 0 60 18.5t60 65.5l5 8l-141 483h126l98 -389l270 389h140l-397 -542q-50 -68 -103.5 -102.5t-132.5 -34.5z"/>
<glyph glyph-name="afii10038" horiz-adv-x="834" unicode="Ф" d="M698 361q0 54 -42 89t-122 45l-74 -324q111 11 174.5 62t63.5 128zM179 304q0 -54 42 -89t122 -44l74 324q-112 -11 -175 -62.5t-63 -128.5zM421 0h-117l15 68q-130 13 -196.5 73.5t-66.5 162.5q0 122 108 205t277 92l15 66h117l-16 -69q264 -29 264 -237 q0 -122 -108.5 -205t-276.5 -91z"/>
<glyph glyph-name="afii10039" horiz-adv-x="661" unicode="Х" d="M603 0h-132l-135 256l-239 -256h-148l328 349l-166 318h133l123 -240l220 240h148l-309 -332z"/>
<glyph glyph-name="afii10040" horiz-adv-x="732" unicode="Ц" d="M515 -123l27 123h-525l146 667h117l-124 -564h347l124 564h117l-124 -564h62l-50 -226h-117z"/>
<glyph glyph-name="afii10041" horiz-adv-x="631" unicode="Ч" d="M261 667l-39 -177q-6 -26 -6 -47q0 -91 111 -91q76 0 144 25l64 290h117l-146 -667h-117l60 274q-75 -25 -157 -25q-99 0 -147.5 44t-48.5 124q0 34 9 73l39 177h117z"/>
<glyph glyph-name="afii10042" horiz-adv-x="953" unicode="Ш" d="M857 667h117l-146 -667h-811l146 667h117l-124 -564h230l124 564h117l-124 -564h230z"/>
<glyph glyph-name="afii10043" horiz-adv-x="962" unicode="Щ" d="M857 667h117l-124 -564h62l-50 -226h-117l27 123h-755l146 667h117l-124 -564h230l124 564h117l-124 -564h230z"/>
<glyph glyph-name="afii10044" horiz-adv-x="767" unicode="Ъ" d="M517 315h-155l-47 -212h157q65 0 102.5 35.5t37.5 88.5q0 37 -27 62.5t-68 25.5zM467 0h-291l124 564h-202l22 103h319l-55 -249h152q93 0 145.5 -51.5t52.5 -128.5q0 -32 -8.5 -63.5t-28.5 -63.5t-49.5 -56t-76 -39.5t-104.5 -15.5z"/>
<glyph glyph-name="afii10045" horiz-adv-x="832" unicode="Ы" d="M358 315h-155l-47 -212h157q65 0 102.5 35.5t37.5 88.5q0 37 -27 62.5t-68 25.5zM163 667h117l-55 -249h152q93 0 145.5 -51.5t52.5 -128.5q0 -32 -8.5 -63.5t-28.5 -63.5t-49.5 -56t-76 -39.5t-104.5 -15.5h-291zM707 0h-117l146 667h117z"/>
<glyph glyph-name="afii10046" horiz-adv-x="608" unicode="Ь" d="M358 315h-155l-47 -212h157q65 0 102.5 35.5t37.5 88.5q0 37 -27 62.5t-68 25.5zM163 667h117l-55 -249h152q93 0 145.5 -51.5t52.5 -128.5q0 -32 -8.5 -63.5t-28.5 -63.5t-49.5 -56t-76 -39.5t-104.5 -15.5h-291z"/>
<glyph glyph-name="afii10047" horiz-adv-x="682" unicode="Э" d="M350 678q138 0 228.5 -81.5t90.5 -214.5q0 -173 -113 -283.5t-269 -110.5q-107 0 -179.5 48t-106.5 127l112 40q23 -54 71 -82.5t109 -28.5q82 0 149.5 54t92.5 142h-365l23 103h353q-5 82 -60 132.5t-143 50.5q-96 0 -166 -76l-89 62q52 62 121.5 90t140.5 28z"/>
<glyph glyph-name="afii10048" horiz-adv-x="1015" unicode="Ю" d="M626 92q105 0 179 81.5t74 201.5q0 91 -58 145t-146 54q-105 0 -179 -81.5t-74 -201.5q0 -92 57.5 -145.5t146.5 -53.5zM619 -12q-138 0 -228.5 80.5t-90.5 215.5v7h-103l-63 -291h-117l146 667h117l-60 -273h94q34 125 135 204.5t233 79.5q138 0 228.5 -80.5 t90.5 -214.5q0 -166 -110.5 -280.5t-271.5 -114.5z"/>
<glyph glyph-name="afii10049" horiz-adv-x="628" unicode="Я" d="M309 352h155l46 212h-159q-63 0 -100 -35.5t-37 -88.5q0 -37 27 -62.5t68 -25.5zM137 0h-150l222 260q-48 16 -82.5 61.5t-34.5 107.5q0 32 8.5 63.5t28.5 63.5t49.5 56t76 39.5t104.5 15.5h291l-147 -667h-117l55 249h-101z"/>
<glyph glyph-name="afii10065" horiz-adv-x="581" unicode="а" d="M302 402q-69 0 -114.5 -58t-45.5 -136q0 -58 33 -92.5t86 -34.5q37 0 70.5 19t55.5 49l42 187q-17 29 -50.5 47.5t-76.5 18.5zM286 495q51 0 93.5 -21.5t66.5 -59.5l15 69h105l-107 -483h-105l14 64q-62 -76 -151 -76q-84 0 -134.5 52.5t-50.5 146.5q0 77 29 146.5 t88.5 115.5t136.5 46z"/>
<glyph glyph-name="afii10066" horiz-adv-x="577" unicode="б" d="M264 -12q-108 0 -170 60t-62 157q0 54 17.5 114t38.5 98q52 96 122 145.5t179 62.5q111 16 117 42h103q-23 -105 -234 -128q-83 -9 -134 -44.5t-73 -84.5q80 85 176 85q94 0 144.5 -60t50.5 -158q0 -116 -79 -202.5t-196 -86.5zM267 81q70 0 116.5 57.5t46.5 134.5 q0 60 -33.5 94.5t-92.5 34.5q-70 0 -116.5 -58t-46.5 -134q0 -60 33.5 -94.5t92.5 -34.5z"/>
<glyph glyph-name="afii10067" horiz-adv-x="572" unicode="в" d="M183 293h171q27 0 43.5 16t16.5 40q0 42 -53 42h-157zM139 92h174q30 0 48.5 17.5t18.5 44.5q0 22 -15.5 34.5t-43.5 12.5h-158zM331 0h-317l106 483h283q57 0 89.5 -29t32.5 -76q0 -52 -30 -87t-78 -46q67 -30 67 -100q0 -59 -42 -102t-111 -43z"/>
<glyph glyph-name="afii10068" horiz-adv-x="452" unicode="г" d="M486 483l-21 -92h-261l-85 -391h-105l106 483h366z"/>
<glyph glyph-name="afii10069" horiz-adv-x="571" unicode="д" d="M251 391l-51 -155q-32 -98 -95 -144h256l65 299h-175zM-62 -123l45 210q34 8 59 40t56 121l81 235h373l-86 -391h53l-47 -215h-105l27 123h-325l-27 -123h-104z"/>
<glyph glyph-name="afii10070" horiz-adv-x="557" unicode="е" d="M150 281h277q1 3 1 14q0 49 -33 81.5t-94 32.5q-56 0 -98.5 -38t-52.5 -90zM277 -12q-113 0 -178.5 58t-65.5 158q0 120 79.5 205.5t196.5 85.5q95 0 154 -58.5t59 -155.5q0 -40 -9 -74h-374q0 -1 -0.5 -7.5t-0.5 -9.5q0 -45 39 -80.5t108 -35.5q77 0 129 40l33 -73 q-72 -53 -170 -53z"/>
<glyph glyph-name="afii10072" horiz-adv-x="731" unicode="ж" d="M91 0h-139l263 264l-153 219h123l136 -198l44 198h105l-40 -181l206 181h137l-249 -219l147 -264h-125l-107 203l-38 -32l-37 -171h-105l37 170l-18 25z"/>
<glyph glyph-name="afii10073" horiz-adv-x="508" unicode="з" d="M293 495q204 0 204 -124q0 -58 -53 -93.5t-109 -39.5q46 -7 77.5 -33t31.5 -65q0 -65 -69 -108.5t-166 -43.5q-72 0 -129 22t-88 58l63 64q58 -58 155 -58q52 0 89.5 21.5t37.5 51.5q0 55 -97 55h-116l19 84h103q138 0 138 70q0 53 -100 53q-94 0 -179 -58l-43 68 q99 76 231 76z"/>
<glyph glyph-name="afii10074" horiz-adv-x="568" unicode="и" d="M115 0h-101l106 483h105l-72 -325l294 325h105l-106 -483h-105l73 334z"/>
<glyph glyph-name="afii10075" horiz-adv-x="568" unicode="й" d="M537 622q-85 -88 -194 -88q-53 0 -94 23.5t-63 64.5l55 40q33 -66 113 -66q79 0 142 66zM115 0h-101l106 483h105l-72 -325l294 325h105l-106 -483h-105l73 334z"/>
<glyph glyph-name="afii10076" horiz-adv-x="526" unicode="к" d="M466 0h-127l-106 202l-86 -72l-28 -130h-105l107 483h105l-51 -227l259 227h135l-250 -219z"/>
<glyph glyph-name="afii10077" horiz-adv-x="568" unicode="л" d="M-39 -12l19 86q31 0 58 39.5t60 134.5l81 235h373l-106 -483h-105l85 391h-175l-51 -155q-42 -130 -100 -189t-139 -59z"/>
<glyph glyph-name="afii10078" horiz-adv-x="677" unicode="м" d="M555 0h-105l73 336l-217 -336h-42l-72 336l-73 -336h-105l106 483h132l65 -312l201 312h143z"/>
<glyph glyph-name="afii10079" horiz-adv-x="567" unicode="н" d="M119 0h-105l110 483h105l-42 -185h222l42 185h105l-110 -483h-105l47 206h-222z"/>
<glyph glyph-name="afii10080" d="M267 81q70 0 116.5 57.5t46.5 134.5q0 60 -33.5 94.5t-92.5 34.5q-70 0 -116.5 -58t-46.5 -134q0 -60 33.5 -94.5t92.5 -34.5zM264 -12q-108 0 -170 60t-62 157q0 116 79 203t196 87q108 0 170 -60.5t62 -157.5q0 -116 -79 -202.5t-196 -86.5z" unicode="о"/>
<glyph glyph-name="afii10081" horiz-adv-x="567" unicode="п" d="M446 0h-105l89 391h-222l-89 -391h-105l110 483h432z"/>
<glyph glyph-name="afii10082" horiz-adv-x="578" unicode="р" d="M278 81q69 0 114.5 57.5t45.5 135.5q0 58 -33.5 93t-85.5 35q-74 0 -127 -69l-41 -187q17 -29 50.5 -47t76.5 -18zM294 -12q-108 0 -160 81l-56 -253h-105l148 667h105l-15 -64q64 76 152 76q83 0 134 -53t51 -147q0 -120 -70 -213.5t-184 -93.5z"/>
<glyph glyph-name="afii10083" horiz-adv-x="497" unicode="с" d="M264 -12q-104 0 -167.5 59.5t-63.5 158.5q0 120 80.5 204.5t196.5 84.5q134 0 190 -93l-79 -60q-35 60 -110 60q-76 0 -123.5 -56.5t-47.5 -135.5q0 -61 37.5 -95t96.5 -34q65 0 110 52l58 -70q-71 -75 -178 -75z"/>
<glyph glyph-name="afii10084" horiz-adv-x="418" unicode="т" d="M207 0h-105l85 391h-138l21 92h382l-21 -92h-139z"/>
<glyph glyph-name="afii10085" horiz-adv-x="503" unicode="у" d="M-47 -185l35 92q18 -8 48 -8q38 0 65 40l38 58l-88 486h109l60 -362l222 362h116l-360 -570q-37 -58 -77 -83.5t-95 -25.5q-42 0 -73 11z"/>
<glyph glyph-name="afii10086" horiz-adv-x="833" unicode="ф" d="M543 81q59 0 98 65.5t39 142.5q0 49 -22 81t-64 32q-58 0 -105 -65l-42 -191q10 -27 36.5 -46t59.5 -19zM287 402q-59 0 -98 -65.5t-39 -142.5q0 -49 22 -81t64 -32q57 0 106 65l42 191q-11 27 -37.5 46t-59.5 19zM265 495q42 0 78.5 -21t57.5 -58l55 251h105l-55 -250 q56 78 138 78q71 0 108 -54t37 -133q0 -78 -26.5 -150.5t-79.5 -121t-118 -48.5q-42 0 -78.5 21t-57.5 58l-55 -251h-105l55 250q-53 -78 -138 -78q-71 0 -108 54t-37 133q0 78 26.5 150.5t79.5 121t118 48.5z"/>
<glyph glyph-name="afii10087" horiz-adv-x="496" unicode="х" d="M437 0h-114l-86 178l-165 -178h-121l231 248l-114 235h114l78 -164l151 164h122l-220 -235z"/>
<glyph glyph-name="afii10088" horiz-adv-x="571" unicode="ц" d="M367 -123l27 123h-380l106 483h105l-86 -391h222l86 391h105l-86 -391h53l-47 -215h-105z"/>
<glyph glyph-name="afii10089" horiz-adv-x="550" unicode="ч" d="M103 483h105l-29 -130q-4 -16 -4 -33q0 -36 24 -50.5t74 -14.5q64 0 110 18l46 210h105l-106 -483h-105l41 188q-58 -26 -145 -26q-159 0 -159 106q0 22 6 47z"/>
<glyph glyph-name="afii10090" horiz-adv-x="791" unicode="ш" d="M670 483h105l-106 -483h-655l106 483h105l-86 -391h170l86 391h105l-86 -391h170z"/>
<glyph glyph-name="afii10091" horiz-adv-x="804" unicode="щ" d="M670 483h105l-86 -391h53l-47 -215h-105l27 123h-603l106 483h105l-86 -391h170l86 391h105l-86 -391h170z"/>
<glyph glyph-name="afii10092" horiz-adv-x="628" unicode="ъ" d="M398 216h-144l-27 -124h162q34 0 55 20t21 51q0 25 -17.5 39t-49.5 14zM388 0h-286l85 391h-138l21 92h243l-39 -175h143q72 0 113.5 -37t41.5 -97q0 -71 -50.5 -122.5t-133.5 -51.5z"/>
<glyph glyph-name="afii10093" horiz-adv-x="750" unicode="ы" d="M310 216h-144l-27 -124h162q34 0 55 20t21 51q0 25 -17.5 39t-49.5 14zM120 483h105l-39 -175h143q72 0 113.5 -37t41.5 -97q0 -71 -50.5 -122.5t-133.5 -51.5h-286zM628 0h-105l106 483h105z"/>
<glyph glyph-name="afii10094" horiz-adv-x="540" unicode="ь" d="M310 216h-144l-27 -124h162q34 0 55 20t21 51q0 25 -17.5 39t-49.5 14zM120 483h105l-39 -175h143q72 0 113.5 -37t41.5 -97q0 -71 -50.5 -122.5t-133.5 -51.5h-286z"/>
<glyph glyph-name="afii10095" horiz-adv-x="497" unicode="э" d="M232 495q104 0 167.5 -59.5t63.5 -158.5q0 -120 -80.5 -204.5t-196.5 -84.5q-134 0 -190 93l73 55q16 -28 47.5 -45t66.5 -17q58 0 100.5 34.5t60.5 89.5h-222l20 91h213q-7 56 -43 87.5t-89 31.5q-71 0 -116 -52l-53 64q71 75 178 75z"/>
<glyph glyph-name="afii10096" horiz-adv-x="789" unicode="ю" d="M483 81q70 0 116.5 57.5t46.5 134.5q0 60 -33.5 94.5t-92.5 34.5q-70 0 -116.5 -58t-46.5 -134q0 -60 33.5 -94.5t92.5 -34.5zM480 -12q-107 0 -168.5 58.5t-63.5 154.5h-85l-44 -201h-105l106 483h105l-42 -190h78q26 88 97.5 145t164.5 57q108 0 170 -60.5t62 -157.5 q0 -116 -79 -202.5t-196 -86.5z"/>
<glyph glyph-name="afii10097" horiz-adv-x="561" unicode="я" d="M248 267h144l27 124h-162q-34 0 -55 -20t-21 -51q0 -25 17.5 -39t49.5 -14zM122 0h-125l163 186q-86 32 -86 123q0 71 50.5 122.5t133.5 51.5h287l-106 -483h-105l38 175h-106z"/>
<glyph glyph-name="afii10071" horiz-adv-x="557" unicode="ё" d="M150 281h277q1 3 1 14q0 49 -33 81.5t-94 32.5q-56 0 -98.5 -38t-52.5 -90zM277 -12q-113 0 -178.5 58t-65.5 158q0 120 79.5 205.5t196.5 85.5q95 0 154 -58.5t59 -155.5q0 -40 -9 -74h-374q0 -1 -0.5 -7.5t-0.5 -9.5q0 -45 39 -80.5t108 -35.5q77 0 129 40l33 -73 q-72 -53 -170 -53zM320 614q0 -26 -20 -45.5t-46 -19.5q-22 0 -37 15t-15 37q0 26 20 45.5t46 19.5q22 0 37 -15t15 -37zM529 614q0 -26 -20 -45.5t-46 -19.5q-22 0 -37 15t-15 37q0 26 20 45.5t46 19.5q23 0 37.5 -15t14.5 -37z"/>
<glyph glyph-name="afii10099" horiz-adv-x="571" unicode="ђ" d="M388 531h-150l-25 -114q35 32 85 55t103 23q128 0 128 -106q0 -26 -5 -47l-82 -370q-17 -79 -68 -123.5t-129 -44.5q-40 0 -61.5 8t-44.5 27l48 78q25 -27 61 -27q32 0 56 20.5t33 61.5l73 332q4 17 4 35q0 63 -80 63q-75 0 -138 -65l-74 -337h-105l116 531h-62l12 62h63 l17 74h105l-17 -74h149z"/>
<glyph glyph-name="afii10100" horiz-adv-x="452" unicode="ѓ" d="M486 483l-21 -92h-261l-85 -391h-105l106 483h366zM536 700l-197 -144h-77l172 144h102z"/>
<glyph glyph-name="afii10101" horiz-adv-x="497" unicode="є" d="M264 -12q-104 0 -167.5 59.5t-63.5 158.5q0 120 80.5 204.5t196.5 84.5q134 0 190 -93l-73 -55q-16 28 -47.5 45t-66.5 17q-56 0 -98.5 -33.5t-62.5 -86.5h223l-20 -91h-214q5 -58 41.5 -90.5t90.5 -32.5q71 0 116 52l53 -64q-71 -75 -178 -75z"/>
<glyph glyph-name="afii10102" horiz-adv-x="472" unicode="ѕ" d="M214 -12q-141 0 -218 86l62 73q22 -30 68.5 -53t96.5 -23q39 0 63 19t24 46q0 25 -39 44.5t-85.5 32.5t-85.5 45t-39 80q0 65 51.5 111t140.5 46q60 0 112.5 -22t83.5 -57l-56 -69q-18 25 -59 44.5t-84 19.5q-39 0 -62 -16t-23 -41q0 -19 25.5 -33.5t62.5 -27t74 -27.5 t62.5 -44t25.5 -69q0 -70 -54.5 -117.5t-146.5 -47.5z"/>
<glyph glyph-name="afii10103" horiz-adv-x="241" unicode="і" d="M119 0h-105l107 483h105zM193 542q-25 0 -42 16.5t-17 39.5q0 33 23 53.5t50 20.5q25 0 42 -16.5t17 -39.5q0 -33 -23 -53.5t-50 -20.5z"/>
<glyph glyph-name="afii10104" horiz-adv-x="241" unicode="ї" d="M119 0h-105l107 483h105zM156 614q0 -26 -20 -45.5t-46 -19.5q-22 0 -37 15t-15 37q0 26 20 45.5t46 19.5q22 0 37 -15t15 -37zM365 614q0 -26 -20 -45.5t-46 -19.5q-22 0 -37 15t-15 37q0 26 20 45.5t46 19.5q23 0 37.5 -15t14.5 -37z"/>
<glyph glyph-name="afii10105" horiz-adv-x="241" unicode="ј" d="M193 542q-25 0 -42 16.5t-17 39.5q0 33 23 53.5t50 20.5q25 0 42 -16.5t17 -39.5q0 -33 -23 -53.5t-50 -20.5zM-60 -196q-85 0 -126 41l46 75q24 -30 65 -30q63 0 82 82l114 511h105l-114 -511q-18 -82 -59 -125t-113 -43z"/>
<glyph glyph-name="afii10106" horiz-adv-x="867" unicode="љ" d="M637 216h-144l-27 -124h162q34 0 55 20t21 51q0 25 -17.5 39t-49.5 14zM-39 -12l19 86q31 0 58 39.5t60 134.5l81 235h373l-39 -175h143q72 0 113.5 -37t41.5 -97q0 -71 -50.5 -122.5t-133.5 -51.5h-286l85 391h-175l-51 -155q-42 -130 -100 -189t-139 -59z"/>
<glyph glyph-name="afii10107" horiz-adv-x="867" unicode="њ" d="M643 201h-153l-24 -109h169q30 0 48.5 17.5t18.5 44.5q0 22 -15.5 34.5t-43.5 12.5zM119 0h-105l106 483h105l-42 -190h222l42 190h105l-42 -190h153q68 0 107.5 -35t39.5 -92q0 -68 -47.5 -117t-127.5 -49h-294l44 201h-222z"/>
<glyph glyph-name="afii10108" horiz-adv-x="568" unicode="ћ" d="M446 0h-105l66 303q5 20 5 30q0 35 -24.5 52t-65.5 17q-65 0 -129 -66l-74 -336h-105l117 531h-61l14 62h60l17 74h105l-17 -74h152l-14 -62h-151l-25 -114q82 78 165 78q68 0 108 -32.5t40 -89.5q0 -15 -5 -40z"/>
<glyph glyph-name="afii10109" horiz-adv-x="526" unicode="ќ" d="M466 0h-127l-106 202l-86 -72l-28 -130h-105l107 483h105l-51 -227l259 227h135l-250 -219zM551 700l-197 -144h-77l172 144h102z"/>
<glyph glyph-name="afii10110" horiz-adv-x="503" unicode="ў" d="M503 622q-85 -88 -194 -88q-53 0 -94 23.5t-63 64.5l55 40q33 -66 113 -66q79 0 142 66zM-47 -185l35 92q18 -8 48 -8q38 0 65 40l38 58l-88 486h109l60 -362l222 362h116l-360 -570q-37 -58 -77 -83.5t-95 -25.5q-42 0 -73 11z"/>
<glyph glyph-name="afii10193" horiz-adv-x="568" unicode="џ" d="M150 -127l28 127h-164l106 483h105l-86 -391h222l86 391h105l-106 -483h-163l-28 -127h-105z"/>
<glyph glyph-name="afii10050" horiz-adv-x="562" unicode="Ґ" d="M134 0h-117l146 667h340l27 123h117l-49 -226h-340z"/>
<glyph glyph-name="afii10098" horiz-adv-x="452" unicode="ґ" d="M204 391l-85 -391h-105l106 483h261l28 127h105l-49 -219h-261z"/>
<glyph glyph-name="thinspace" horiz-adv-x="51" unicode=" "/>
<glyph glyph-name="endash" horiz-adv-x="593" unicode="–" d="M552 197h-533l20 90h533z"/>
<glyph glyph-name="emdash" horiz-adv-x="833" unicode="—" d="M792 197h-773l20 90h773z"/>
<glyph glyph-name="quoteleft" horiz-adv-x="244" unicode="‘" d="M98 493q0 52 38.5 104t95.5 80l39 -41q-71 -34 -92 -84q2 1 9 1q23 0 38.5 -15.5t15.5 -41.5q0 -30 -23.5 -52t-53.5 -22q-28 0 -47.5 18.5t-19.5 52.5z"/>
<glyph glyph-name="quotesinglbase" horiz-adv-x="245" unicode="‚" d="M154 57q0 -52 -38.5 -104t-94.5 -80l-39 41q71 34 92 84h-10q-22 0 -37.5 15t-15.5 41q0 30 23 52.5t53 22.5q28 0 47.5 -19t19.5 -53z"/>
<glyph glyph-name="quotedblleft" horiz-adv-x="429" unicode="“" d="M102 493q0 52 38.5 104t95.5 80l39 -41q-71 -34 -92 -84q2 1 9 1q23 0 38.5 -15.5t15.5 -41.5q0 -30 -23.5 -52t-53.5 -22q-28 0 -47.5 18.5t-19.5 52.5zM287 493q0 52 38.5 104.5t94.5 79.5l39 -41q-71 -34 -92 -84q2 1 10 1q22 0 37.5 -15.5t15.5 -41.5q0 -30 -23 -52 t-53 -22q-29 0 -48 18.5t-19 52.5z"/>
<glyph glyph-name="quotedblright" horiz-adv-x="429" unicode="”" d="M460 605q0 -52 -38.5 -104t-94.5 -80l-39 41q71 34 92 84h-10q-22 0 -37.5 15t-15.5 41q0 30 23 52.5t53 22.5q28 0 47.5 -19t19.5 -53zM276 605q0 -52 -38.5 -104t-95.5 -80l-39 41q71 34 92 84h-9q-23 0 -38.5 15t-15.5 41q0 30 23.5 52.5t53.5 22.5q28 0 47.5 -19 t19.5 -53z"/>
<glyph glyph-name="dagger" horiz-adv-x="271" unicode="†" d="M312 526l-88 4l-41 -203h-60l50 203l-90 -4l12 54l88 -3l18 100h60l-27 -100l90 3z"/>
<glyph glyph-name="daggerdbl" horiz-adv-x="271" unicode="‡" d="M324 580l-12 -54l-88 4l-45 -202l90 4l-12 -54l-88 3l-19 -101h-60l27 101l-89 -3l12 54l87 -4l45 202l-89 -4l12 54l88 -3l18 100h60l-27 -100z"/>
<glyph glyph-name="ellipsis" horiz-adv-x="735" unicode="…" d="M565 -11q-27 0 -45.5 19t-18.5 45q0 31 22.5 53.5t54.5 22.5q26 0 44.5 -19t18.5 -46q0 -31 -22.5 -53t-53.5 -22zM320 -11q-27 0 -45.5 19t-18.5 45q0 31 22.5 53.5t54.5 22.5q26 0 44.5 -19t18.5 -46q0 -31 -22.5 -53t-53.5 -22zM75 -11q-27 0 -45.5 19t-18.5 45 q0 31 22.5 53.5t54.5 22.5q26 0 44.5 -19t18.5 -46q0 -31 -22.5 -53t-53.5 -22z"/>
<glyph glyph-name="perthousand" horiz-adv-x="1105" unicode="‰" d="M880 54q42 0 72 34.5t30 86.5q0 33 -22.5 55t-57.5 22q-42 0 -72 -34t-30 -86q0 -34 22.5 -56t57.5 -22zM878 -12q-65 0 -110.5 38t-45.5 99q0 85 54 139.5t128 54.5q65 0 110.5 -38t45.5 -99q0 -85 -54 -139.5t-128 -54.5zM242 412q42 0 72 34.5t30 86.5q0 33 -23 55 t-58 22q-42 0 -72 -34t-30 -86q0 -34 23 -56t58 -22zM239 346q-65 0 -110 38t-45 99q0 85 53.5 139.5t128.5 54.5q65 0 110 -38t45 -99q0 -85 -53.5 -139.5t-128.5 -54.5zM521 54q42 0 72 34.5t30 86.5q0 33 -22.5 55t-57.5 22q-42 0 -72 -34t-30 -86q0 -34 22.5 -56 t57.5 -22zM519 -12q-65 0 -110.5 38t-45.5 99q0 85 54 139.5t128 54.5q65 0 110.5 -38t45.5 -99q0 -85 -54 -139.5t-128 -54.5zM141 0h-66l573 667h67z"/>
<glyph glyph-name="guilsinglleft" horiz-adv-x="319" unicode="‹" d="M244 63h-95l-120 180l200 177h103l-204 -182z"/>
<glyph glyph-name="guilsinglright" horiz-adv-x="319" unicode="›" d="M77 420h95l120 -180l-200 -177h-103l204 182z"/>
<glyph glyph-name="uni203E" horiz-adv-x="363" unicode="‾" d="M433 566h-362l14 62h362z"/>
<glyph glyph-name="fraction" horiz-adv-x="150" unicode="⁄" d="M415 667l-574 -667h-67l573 667h68z"/>
<glyph glyph-name="Euro" horiz-adv-x="703" unicode="€" d="M396 -12q-123 0 -209.5 65.5t-105.5 176.5h-59l15 67h40q1 34 8 74h-32l15 67h37q43 110 140 175t214 65q107 0 179.5 -48t106.5 -127l-112 -40q-23 54 -71 82.5t-109 28.5q-67 0 -125.5 -36.5t-92.5 -99.5h282l-16 -67h-292q-10 -38 -10 -74h286l-15 -67h-263 q18 -63 69.5 -100.5t126.5 -37.5q96 0 166 76l89 -62q-52 -62 -121.5 -90t-140.5 -28z"/>
<glyph glyph-name="trademark" horiz-adv-x="454" unicode="™" d="M257 641h-62l-43 -194h-28l43 194h-62l5 26h152zM464 447h-28l40 182l-115 -182h-8l-35 182l-40 -182h-28l48 220h43l29 -160l99 160h43z"/>
<glyph glyph-name="arrowleft" horiz-adv-x="582" unicode="←" d="M558 211h-269l12 -130l-281 205l281 204l-12 -129h269v-150z"/>
<glyph glyph-name="arrowup" horiz-adv-x="582" unicode="↑" d="M236 17v269l-130 -12l205 281l204 -281l-129 12v-269h-150z"/>
<glyph glyph-name="arrowright" horiz-adv-x="582" unicode="→" d="M604 286l-281 -205l12 130h-268v150h268l-12 129z"/>
<glyph glyph-name="arrowdown" horiz-adv-x="582" unicode="↓" d="M386 555v-269l130 12l-205 -281l-204 281l129 -12v269h150z"/>
<glyph glyph-name="partialdiff" d="M268 81q66 0 111.5 51t45.5 124q0 49 -34 84t-97 35q-64 0 -109 -50t-45 -122q0 -56 33.5 -89t94.5 -33zM267 -12q-106 0 -172.5 58t-66.5 150q0 114 73 193t176 79q55 0 98.5 -27t66.5 -81q-18 69 -79 140t-143 132l74 77q249 -188 249 -405q0 -133 -76.5 -224.5 t-199.5 -91.5z" unicode="∂"/>
<glyph glyph-name="product" horiz-adv-x="753" unicode="∏" d="M545 -90h-117l144 654h-250l-145 -654h-117l145 654h-107l23 103h697l-22 -103h-107z"/>
<glyph glyph-name="summation" horiz-adv-x="581" unicode="∑" d="M262 564l156 -273l-275 -278h338l-23 -103h-483l22 103l278 283l-154 268l22 103h482l-22 -103h-341z"/>
<glyph glyph-name="minus" horiz-adv-x="502" unicode="−" d="M485 303h-444l15 68h444z"/>
<glyph glyph-name="radical" horiz-adv-x="700" unicode="√" d="M360 0h-73l-51 313l-153 -53l-7 64l223 75l47 -293l338 561h81z"/>
<glyph glyph-name="infinity" horiz-adv-x="675" unicode="∞" d="M202 231q69 0 125 108q-7 48 -33 74.5t-65 26.5q-48 0 -79.5 -36.5t-31.5 -89.5q0 -37 24 -60t60 -23zM485 231q49 0 80 36t31 89q0 37 -23.5 60.5t-60.5 23.5q-67 0 -123 -109q6 -48 31.5 -74t64.5 -26zM187 163q-66 0 -104 38.5t-38 103.5q0 79 50 140.5t132 61.5 q51 0 89.5 -27.5t55.5 -78.5q71 106 154 106q67 0 104.5 -38.5t37.5 -103.5q0 -80 -49.5 -141t-131.5 -61q-51 0 -89.5 27.5t-55.5 77.5q-71 -105 -155 -105z"/>
<glyph glyph-name="approxequal" horiz-adv-x="502" unicode="≈" d="M61 390l16 74q43 -31 104 -31q46 0 111 27.5t122 27.5q60 0 107 -25l-16 -74q-43 31 -105 31q-46 0 -111 -27t-122 -27q-63 0 -106 24zM20 205l16 74q43 -31 104 -31q46 0 111 27t122 27q63 0 107 -25l-17 -74q-43 32 -105 32q-45 0 -110.5 -27.5t-122.5 -27.5 q-63 0 -105 25z"/>
<glyph glyph-name="notequal" horiz-adv-x="502" unicode="≠" d="M98 93h-70l97 112h-105l15 67h147l106 123h-226l15 68h269l96 111h71l-95 -111h103l-16 -68h-146l-106 -123h226l-15 -67h-269z"/>
<glyph glyph-name="lessequal" horiz-adv-x="502" unicode="≤" d="M419 0h-444l14 67h444zM441 105l-398 207l17 75l490 208l-19 -84l-401 -166l328 -163z"/>
<glyph glyph-name="greaterequal" horiz-adv-x="502" unicode="≥" d="M418 0h-444l15 67h444zM487 312l-490 -207l19 84l401 163l-328 166l17 77l398 -208z"/>
<glyph glyph-name="dotmath" horiz-adv-x="245" unicode="⋅" d="M116 175q-27 0 -45.5 19t-18.5 45q0 31 22.5 53.5t54.5 22.5q26 0 44.5 -19t18.5 -46q0 -31 -22.5 -53t-53.5 -22z"/>
<glyph glyph-name="lozenge" horiz-adv-x="375" unicode="◊" d="M142 45l197 293l-67 284l-196 -292zM144 0h-21l-84 334l231 333h21l85 -333z"/>
<glyph glyph-name="diamond" horiz-adv-x="501" unicode="♦" d="M521 285l-251 -250l-250 250l250 251z"/>
</font>
</defs>
</svg>
